<svg width="61" height="93" viewBox="0 0 61 93" fill="none" xmlns="http://www.w3.org/2000/svg">
<path d="M3.46004 28.092C2.84045 25.6485 1.41932 24.1465 1.37431 21.568C1.35746 20.6028 1.48723 18.4354 2.43714 17.9046C3.37293 17.382 3.81419 16.1061 3.79428 14.9653C3.76696 13.4005 4.04158 12.6687 4.71803 11.3836C5.05692 10.7386 6.668 9.72147 7.35837 9.35665C8.49745 8.75478 8.8446 7.60116 9.7098 6.87481C10.6769 6.06314 11.645 5.22287 12.625 4.41525C13.0524 4.06288 13.5332 3.29469 14.0103 3.09212C15.2059 2.58281 16.6225 2.76089 17.9478 2.73776" stroke="black" stroke-linecap="round" stroke-linejoin="round"/>
<path d="M18.5111 2.72854C18.7977 2.59928 21.2848 0.248595 21.3048 1.39581C21.3213 2.34028 21.9941 1.95148 22.4986 1.64418C23.2113 1.21113 22.9268 2.88782 23.8605 2.5716C24.6595 2.30057 25.5247 4.8841 26.4299 5.42673C27.3062 5.9513 27.6713 6.27627 28.7136 6.25808C29.4387 6.24542 30.1422 6.02106 30.4132 6.79899" stroke="black" stroke-linecap="round" stroke-linejoin="round"/>
<path d="M30.414 6.79896C31.7924 7.65039 33.7445 10.3199 35.389 8.43954C35.6197 8.17486 36.4217 7.54958 36.764 7.54361C37.2559 7.53502 37.8782 6.41658 38.3503 6.08985C38.8577 5.74394 39.5306 5.4794 39.9586 5.07917C40.4428 4.63155 41.2427 4.69399 41.633 4.17874C42.2536 3.3674 44.8769 4.53488 45.5287 4.69703C46.7893 5.01279 47.6478 4.75786 48.5517 5.88036C49.4774 7.0289 49.0473 9.3494 49.0729 10.8157C49.1006 12.4041 48.8479 13.8624 48.8758 15.4623C48.9123 17.5504 47.1366 22.4579 49.3007 23.8691" stroke="black" stroke-linecap="round" stroke-linejoin="round"/>
<path d="M49.3005 23.8691C50.3029 24.0966 52.1903 24.7749 52.9949 25.5156C53.1688 25.6776 53.8693 27.4049 53.872 27.5605C54.0159 30.0845 54.2185 31.8812 55.737 33.8985C57.0438 35.6288 57.4318 37.84 57.4693 39.9852C57.4874 41.0225 58.0628 41.7159 58.0811 42.7639C58.102 43.9603 58.2364 44.7099 59.2606 45.3733" stroke="black" stroke-linecap="round" stroke-linejoin="round"/>
<path d="M58.4321 46.5297C58.4855 49.5923 58.8507 52.1296 57.5142 54.8179C57.0731 55.6997 56.0862 57.1787 56.103 58.1381C56.1115 58.6286 56.2783 59.1876 55.8411 59.4745C55.2629 59.8523 55.737 60.8624 55.3116 61.4168C54.9072 61.9451 55.1747 62.561 54.9066 63.1348C54.707 63.5504 54.2608 63.7288 54.0753 64.132C53.8693 64.5883 54.0784 65.1295 53.8221 65.5632C53.1914 66.6039 52.1207 67.7759 51.8407 68.8933C51.7142 69.4068 51.3258 70.0384 51.2626 70.5044C51.1426 71.3877 50.9109 71.5974 50.7098 72.3365C50.4892 73.1758 49.2641 75.3081 48.5118 75.5126" stroke="black" stroke-linecap="round" stroke-linejoin="round"/>
<path d="M48.5119 75.5119C46.4444 75.548 45.1811 75.4872 43.2684 74.5894C42.5206 74.2361 41.4217 73.3776 40.5871 73.3686C38.5757 73.3452 36.9604 73.1442 35.2325 72.1624C33.9569 71.4392 32.7163 71.4144 31.2519 70.9487C29.7596 70.4734 28.8618 70.0285 27.8374 69.0273" stroke="black" stroke-linecap="round" stroke-linejoin="round"/>
<path d="M27.838 69.0273C27.6747 69.2351 26.383 71.1422 25.8344 70.8054C25.1791 70.4034 24.1093 69.2088 23.7287 68.5285C23.354 67.8573 23.101 67.6639 22.5774 67.1225C22.1481 66.678 22.3488 65.9554 21.6898 65.5848C20.4431 64.8825 19.3442 64.3554 18.778 62.8463C18.339 61.6765 16.9844 61.7801 16.6825 60.2529C16.5589 59.6266 15.9265 59.3128 15.5782 58.8454C15.2116 58.3533 15.3235 57.8201 15.0817 57.2852C14.5417 56.0935 14.634 54.9671 14.6107 53.6329C14.5889 52.3815 14.567 51.13 14.5452 49.8786C14.5218 48.5386 15.8854 48.7476 16.4863 48.1173" stroke="black" stroke-linecap="round" stroke-linejoin="round"/>
<path d="M16.487 48.1179C16.4538 46.2169 16.4206 44.3158 16.3875 42.4147C16.3617 40.9398 17.5709 39.8147 18.2941 38.6731" stroke="black" stroke-linecap="round" stroke-linejoin="round"/>
<path d="M18.2932 38.6724C17.0467 37.698 14.2508 36.3264 13.7307 34.6002C13.5059 33.8551 12.9957 33.147 12.5515 32.4971" stroke="black" stroke-linecap="round" stroke-linejoin="round"/>
<path d="M12.5518 32.4971C11.2136 32.5204 10.2381 32.5603 9.04163 33.1446C8.09482 33.6075 7.37654 33.8849 6.26637 33.7322C5.05825 33.5655 5.21531 31.7782 5.20022 30.9137C5.14854 27.9532 5.32663 26.9183 8.50982 26.8627" stroke="black" stroke-linecap="round" stroke-linejoin="round"/>
<path d="M8.50971 26.8628C9.94404 24.7904 9.54973 21.8945 9.5067 19.4294C9.49041 18.4964 9.93688 17.3132 10.5858 16.7006C11.0868 16.2277 10.9464 14.5198 11.0836 13.8398C11.5187 11.6784 10.5827 9.41179 12.688 8.02754C13.5708 7.44727 14.359 6.15384 15.1127 5.29162C15.7231 4.59257 17.1421 4.13293 17.3946 3.31801" stroke="black" stroke-linecap="round" stroke-linejoin="round"/>
<path d="M12.2979 17.9545C12.7196 15.8862 15.127 15.6235 17.0455 15.59" stroke="black" stroke-linecap="round" stroke-linejoin="round"/>
<path d="M11.2262 21.1102C13.0199 21.0788 13.9083 20.5363 14.7895 19.0513C15.4691 17.9062 16.7971 16.9697 18.0144 16.3964C18.1955 16.3104 18.8848 14.7424 19.1536 14.4113C19.4628 14.0289 19.4038 13.5065 19.82 13.1636C20.1891 12.8594 20.5793 13.1125 20.6381 12.5152C20.7375 11.5109 21.1216 11.0057 21.3956 10.1569C21.6689 9.30802 21.4224 8.13548 21.4068 7.24098" stroke="black" stroke-linecap="round" stroke-linejoin="round"/>
<path d="M19.6345 18.6826C21.0982 17.7195 21.4596 17.1405 22.0853 15.6442C22.2674 15.2097 21.9466 14.6412 22.1543 14.2012C22.3778 13.7275 22.653 14.0918 22.6387 13.2737C22.6211 12.2643 23.1805 11.6276 23.5653 10.7539C23.9748 9.82202 24.8254 9.44511 24.8058 8.3236" stroke="black" stroke-linecap="round" stroke-linejoin="round"/>
<path d="M23.5877 19.1842C24.9009 18.1401 24.9681 17.5798 24.941 16.0228C24.9284 15.3004 24.6189 14.1575 25.4534 14.0015C25.5152 13.9897 26.9454 11.1869 27.1042 10.8506" stroke="black" stroke-linecap="round" stroke-linejoin="round"/>
<path d="M27.1035 10.8508C29.0738 12.3539 30.2651 14.4147 30.3112 17.0547C30.3365 18.5053 31.0611 19.3688 31.6565 20.6281C32.1934 21.7642 32.4175 23.0835 32.9703 24.155" stroke="black" stroke-linecap="round" stroke-linejoin="round"/>
<path d="M32.9704 24.1541C33.5265 25.7804 33.5838 27.0183 33.6133 28.7066C33.6269 29.4883 33.9295 31.1348 33.5263 31.8138C32.6742 33.2504 31.4602 34.7084 30.9914 36.3269C30.7062 37.3123 29.2076 38.0697 28.2713 38.276C27.0749 38.5404 26.507 39.0995 25.2031 39.1222C22.9239 39.162 20.8172 38.6282 18.575 38.6673" stroke="black" stroke-linecap="round" stroke-linejoin="round"/>
<path d="M27.854 32.8841C25.4679 33.422 23.8289 34.1854 21.3744 34.2283C20.5609 34.2425 20.0918 31.8384 20.5645 31.3417C21.3061 30.5618 22.3131 30.3629 23.2766 29.6255C24.1703 28.9408 26.1284 29.2201 27.4559 29.197" stroke="black" stroke-linecap="round" stroke-linejoin="round"/>
<path d="M21.5737 32.9101C22.6528 32.4235 25.8092 31.0388 26.3113 29.9753" stroke="black" stroke-linecap="round" stroke-linejoin="round"/>
<path d="M23.4348 26.6029C23.7359 26.1985 25.1889 25.1605 24.7744 24.4558C24.4172 23.8479 23.0685 24.8184 22.8263 24.0142C22.5855 23.2144 21.9776 23.3199 21.7372 22.5758C21.4937 21.8231 21.0865 21.1718 21.0725 20.3687" stroke="black" stroke-linecap="round" stroke-linejoin="round"/>
<path d="M23.8595 18.6081C25.5519 18.2429 27.1997 18.2649 28.9235 18.2348" stroke="black" stroke-linecap="round" stroke-linejoin="round"/>
<path d="M12.1107 23.3773C13.2877 22.4134 15.8293 20.5323 17.4314 21.5734" stroke="black" stroke-linecap="round" stroke-linejoin="round"/>
<path d="M12.694 24.5073C13.8865 24.5158 16.8527 25.3902 17.7568 24.0705C18.6789 22.724 19.0798 21.8287 17.1549 21.8623" stroke="black" stroke-linecap="round" stroke-linejoin="round"/>
<path d="M16.3348 23.3034C15.2111 24.8284 15.3545 23.6054 15.9177 23.5956C16.8359 23.5796 16.0617 24.7399 15.6659 24.4084C15.4111 24.195 15.2802 22.7798 15.7616 22.7429C16.5863 22.6792 16.5847 24.1788 16.0731 24.4491" stroke="black" stroke-linecap="round" stroke-linejoin="round"/>
<path d="M26.167 21.7057C26.1274 19.4399 26.1945 20.0164 27.9469 19.6623C28.6966 19.5107 28.3393 18.8157 29.4963 18.7955" stroke="black" stroke-linecap="round" stroke-linejoin="round"/>
<path d="M25.0356 21.4406C27.0111 21.4061 30.1151 21.9575 30.0697 19.3561" stroke="black" stroke-linecap="round" stroke-linejoin="round"/>
<path d="M27.8259 19.9651C27.7936 19.9885 26.8063 20.8758 26.7095 20.5542C26.6982 20.5158 26.6989 19.9434 26.7051 20.3009C26.7173 21.0001 27.147 20.7549 27.5538 20.5394" stroke="black" stroke-linecap="round" stroke-linejoin="round"/>
<path d="M15.8555 60.3936C18.1026 64.5233 21.7003 69.0093 26.1647 70.8944C27.3264 71.3854 27.0733 71.9219 27.4064 73.0279C27.5442 73.4854 28.0223 73.6249 28.1755 74.0285C28.3781 74.5627 28.2311 75.4143 28.2409 75.9769C28.2767 78.0257 28.3125 80.0746 28.3482 82.1234C28.3759 83.7111 27.323 84.877 26.6033 86.1785C26.3289 86.6753 26.0197 87.5519 25.5692 87.8926C25.3736 88.0402 24.8555 88.1057 24.8104 88.3814C24.7371 88.8383 24.9017 89.2018 24.4052 89.3547C23.8683 89.5204 23.9789 90.6696 23.9971 91.0578C24.0499 92.2037 25.7487 92.2112 26.7101 92.2937C28.3099 92.4314 29.3907 92.2469 32.0292 92.2008C33.3488 92.1778 32.6295 92.1904 36.5855 92.1213C38.7457 92.0836 35.8618 91.8012 40.1858 92.0585C41.9823 92.0271 41.4405 92.0366 43.4225 92.002C45.2191 91.9706 40.9058 92.0459 50.623 91.8763C51.7505 91.9166 54.5803 91.8365 55.6568 91.8177C56.8988 91.0669 55.7512 86.6038 55.7296 85.3695C55.6867 82.9116 55.1393 81.378 54.4295 79.1167C53.8631 77.3063 53.4645 74.8982 52.1413 73.4517C51.2762 72.5091 51.6458 69.9869 50.0968 69.4941" stroke="black" stroke-linecap="round" stroke-linejoin="round"/>
<path d="M27.5913 71.0288C29.4016 72.8867 29.1211 75.5681 30.8007 77.3747C31.4409 78.0634 31.0925 79.7162 31.4214 80.6602" stroke="black" stroke-linecap="round" stroke-linejoin="round"/>
<path d="M26.7261 69.9022C27.2664 69.1537 27.9935 68.4026 28.3758 67.5918" stroke="black" stroke-linecap="round" stroke-linejoin="round"/>
<path d="M26.1674 70.1977C26.6524 69.0531 27.2713 68.5602 28.3855 68.1616" stroke="black" stroke-linecap="round" stroke-linejoin="round"/>
<path d="M53.902 61.1556C53.0715 60.561 52.25 60.0741 51.3366 59.6316C50.9698 59.4545 50.1551 59.3587 49.9005 59.0704C49.4057 58.5027 47.7796 57.2693 47.0667 57.2817" stroke="black" stroke-linecap="round" stroke-linejoin="round"/>
<path d="M19.7512 41.4998C20.0748 42.8759 20.8957 44.3926 21.6678 45.5231C22.1251 46.1914 22.2689 46.9108 22.8918 47.4984C23.5451 48.114 24.1525 47.8606 24.9357 48.0333C26.0468 48.2774 26.6585 48.1432 27.4862 48.9078C28.4169 49.767 29.6889 50.2004 30.6853 51.0699C31.7209 51.9745 33.3464 53.1772 34.6742 53.6632C35.9224 54.1199 36.303 54.6845 37.4005 55.4537C38.1369 55.9715 38.9264 57.4873 39.2622 58.3369C39.5902 59.1517 40.5106 59.9933 40.9313 60.8114" stroke="black" stroke-linecap="round" stroke-linejoin="round"/>
<path d="M42.0576 60.7918C42.0238 58.85 41.1734 58.7528 40.3675 57.1137C39.9015 56.1549 39.6059 55.1539 38.786 54.352C37.7993 53.3838 37.4057 52.086 36.2552 51.132C35.203 50.2563 34.6084 48.8728 33.5266 47.9783C32.0295 46.7398 29.8747 45.6162 28.826 44.0828C28.3613 43.4025 27.39 43.3995 27.3717 42.3493C27.3527 41.2614 27.3337 40.1734 27.3147 39.0854" stroke="black" stroke-linecap="round" stroke-linejoin="round"/>
<path d="M33.4959 38.1222C33.7662 37.4283 34.8043 34.5966 35.4626 34.3159C36.6094 33.8303 36.9281 31.6625 37.3096 30.6389" stroke="black" stroke-linecap="round" stroke-linejoin="round"/>
<path d="M37.2945 29.7835C37.7635 26.4191 38.8701 23.2199 38.8099 19.7732C38.7997 19.1864 38.7221 18.8321 39.1283 18.4052C39.8917 17.6063 39.5839 19.1734 38.7407 19.4895C36.6649 20.2691 35.139 20.6928 32.9104 20.7317" stroke="black" stroke-linecap="round" stroke-linejoin="round"/>
<path d="M39.7609 26.0322C40.1512 25.5141 40.6217 24.2826 41.1375 24.0115" stroke="black" stroke-linecap="round" stroke-linejoin="round"/>
<path d="M41.2119 28.2892C41.1987 27.5289 41.1854 26.7686 41.1721 26.0083" stroke="black" stroke-linecap="round" stroke-linejoin="round"/>
<path d="M16.1357 41.6436C15.0371 41.4592 13.9508 40.7084 13.1541 39.9296C12.7137 39.4988 12.2022 39.0379 11.863 38.5182C11.7282 38.3121 11.6336 38.1259 11.4796 37.9215C11.2226 37.5804 11.3097 37.1789 11.0736 36.8489C10.6585 36.2713 9.96464 35.9863 9.58667 35.373" stroke="black" stroke-linecap="round" stroke-linejoin="round"/>
<path d="M35.2323 59.6476C36.1321 60.4153 37.3769 60.6385 38.1132 61.5597C38.4268 61.9541 38.9012 62.1693 39.2989 62.4823C39.6532 62.7632 40.1178 63.23 40.5883 63.2217C41.3654 63.2082 42.1574 63.2322 42.9409 63.1807C43.4253 63.1487 43.647 61.9558 43.7324 61.5373C43.8042 61.1611 44.1569 60.9357 44.2647 60.5768C44.359 60.261 44.5592 59.8797 44.7543 59.6171C45.0957 59.1584 45.6334 58.9141 46.0323 58.4779C46.3402 58.1376 46.8394 57.7326 47.0537 57.3432C47.2889 56.9264 47.7087 56.8719 47.9876 56.5121C48.2248 56.2095 48.5338 55.9342 48.7133 55.594C49.231 54.6109 49.4554 53.5758 49.729 52.497C49.9092 51.7898 50.3137 51.27 50.5447 50.6111C50.7691 49.9838 50.5567 49.2563 50.795 48.6144C51.0539 47.9165 51.6222 47.381 51.7664 46.658C51.8388 46.3089 52.1375 46.2609 52.268 45.9779C52.3575 45.7936 52.6977 45.2663 52.6873 45.0794C52.6583 44.6393 51.993 44.5195 51.7318 44.2663C51.3182 43.8594 51.2109 43.4321 50.9598 42.9366C50.421 41.8948 50.3455 40.8328 49.1605 40.3565C48.6362 40.1457 48.095 40.1909 47.7019 39.7328C47.1631 39.0988 46.5135 38.6517 45.8628 38.1425C45.4651 37.8281 45.5043 37.6232 45.2477 37.2249C45.0718 36.9552 44.7787 36.9089 44.7582 36.5543C44.7165 35.8002 45.1871 35.3843 45.2532 34.6819C45.3074 34.1082 45.0906 32.7152 45.9817 32.6997C46.8443 32.6846 47.6434 32.7064 47.6623 33.7872C47.6719 34.339 47.253 35.2582 48.0229 35.2448C48.4649 35.2371 49.2667 34.5961 49.2724 34.1061C49.3001 32.8317 49.3636 31.5681 49.341 30.2709C49.3302 29.6541 49.2753 28.9603 48.631 29.6342C48.3439 29.9356 46.987 29.8293 47.4005 29.8221C48.1776 29.8085 45.5847 29.978 45.9022 29.3726C46.3509 28.5214 45.5613 29.0437 45.5494 28.3598C45.534 27.4767 45.0844 27.0497 44.2579 26.6849C43.9129 26.5331 43.5636 26.1279 43.1992 26.0921C42.9206 26.0641 42.8127 25.6025 43.1184 25.5501C43.545 25.4755 43.715 24.9962 44.1498 24.9886C44.5919 24.9809 45.0339 24.9732 45.4759 24.9655C46.2244 24.9524 46.8685 24.6691 47.6669 24.6552C49.0429 24.6312 50.4188 24.6071 51.7947 24.5831" stroke="black" stroke-linecap="round" stroke-linejoin="round"/>
<path d="M48.7126 24.9097C50.2668 24.8825 51.0206 25.5764 51.9443 26.6121C52.3735 27.0924 52.3473 28.4525 52.9353 28.6393" stroke="black" stroke-linecap="round" stroke-linejoin="round"/>
<path d="M45.1406 27.8243C45.4593 27.291 46.116 26.5069 46.8302 26.5723C47.7516 26.6562 47.3237 28.2846 47.4409 28.871C47.4957 29.1557 48.3275 28.5949 48.4263 28.5367C48.8921 28.2601 48.7865 29.1567 48.7911 29.4209C48.8018 30.0312 48.8312 30.0843 49.3419 30.3317" stroke="black" stroke-linecap="round" stroke-linejoin="round"/>
<path d="M53.2515 23.4724C55.2624 23.8736 55.9388 25.8584 57.2333 27.2969C57.4733 27.5648 58.6551 28.2683 57.7569 28.2839" stroke="black" stroke-linecap="round" stroke-linejoin="round"/>
<path d="M55.103 22.0811C56.6985 22.376 57.8678 23.9959 58.7816 25.2775" stroke="black" stroke-linecap="round" stroke-linejoin="round"/>
<path d="M48.3788 52.3572C47.4828 51.6902 46.5414 51.2767 45.7227 50.5426C45.1867 50.0649 44.83 49.2407 44.3096 48.8434C43.6879 48.3637 42.5352 46.8756 42.5203 46.0247C42.5128 45.5978 42.1583 45.3054 42.1503 44.8464C42.1366 44.059 42.4351 44.001 43.1007 43.733C44.949 42.9838 46.5769 40.6466 47.2721 38.8021" stroke="black" stroke-linecap="round" stroke-linejoin="round"/>
<path d="M41.1379 46.4902C40.3828 46.127 39.784 45.7376 39.1132 45.3015C38.7885 45.0894 38.882 44.7214 38.4875 44.5969" stroke="black" stroke-linecap="round" stroke-linejoin="round"/>
<path d="M30.8618 36.4436C31.6427 36.977 32.3279 37.622 33.163 38.0687C33.7129 38.3626 34.1786 38.528 34.5638 39.0626C34.7757 39.3567 35.1803 39.571 35.3517 39.8322C35.9232 40.7034 34.6553 41.7296 34.1351 42.2043C32.8983 43.332 32.0344 45.1945 33.9859 45.8695C35.4589 46.3801 37.5076 46.0865 39.078 46.1727C39.4063 46.1905 41.0187 47.045 41.11 47.3712C41.2468 47.8551 41.1717 48.4562 41.1804 48.9567C41.191 49.5635 41.51 49.8635 41.6834 50.3975C41.9914 51.2955 41.9097 52.3309 42.04 53.2606C42.2037 54.4681 42.3247 55.6764 42.4955 56.886C42.6586 58.0543 42.75 59.2088 42.7706 60.3874" stroke="black" stroke-linecap="round" stroke-linejoin="round"/>
<path d="M3.07373 28.7114C3.74181 29.9287 4.80734 31.157 4.83241 32.5933C4.83971 33.0116 4.84702 33.4306 4.85434 33.8497C4.86802 34.6335 4.83783 35.3575 5.18279 36.0813C5.31973 36.3681 5.30265 36.6554 5.53653 36.8984C5.76314 37.1337 6.03513 37.3118 6.24221 37.5724C6.31804 37.6674 6.48135 37.7074 6.52474 37.8238C6.57564 37.9614 6.56731 38.1394 6.60624 38.2858C6.6612 38.4927 6.6769 38.6981 6.92358 38.6937" stroke="black" stroke-linecap="round" stroke-linejoin="round"/>
<path d="M10.702 32.1138C9.93749 30.9281 8.97061 30.1974 8.94458 28.7061" stroke="black" stroke-linecap="round" stroke-linejoin="round"/>
<path d="M8.94457 28.7059C8.71957 28.1517 8.61892 27.7381 8.60864 27.1494" stroke="black" stroke-linecap="round" stroke-linejoin="round"/>
<path d="M31.2754 7.99658C32.1395 8.84199 33.1284 10.0537 33.1854 11.3152C33.2335 12.3563 33.8385 13.3562 33.8561 14.3599C33.8857 16.0582 34.2261 17.8682 34.2554 19.5458C34.2873 21.3755 34.8461 23.4438 35.8902 24.9188C36.2849 25.466 36.523 25.6261 36.5356 26.3493C36.5522 27.2995 36.721 28.3898 36.5162 29.3196C36.3312 30.1597 35.9924 30.7748 36.008 31.6643C36.0135 31.9798 36.019 32.2946 36.0245 32.6101" stroke="black" stroke-linecap="round" stroke-linejoin="round"/>
</svg>
