<svg width="1003" height="82" viewBox="0 0 1003 82" fill="none" xmlns="http://www.w3.org/2000/svg">
<path d="M283.376 73.0349C283.944 70.5899 284.164 68.6409 284.121 66.2023C284.1 65.0258 284.496 62.8173 283.9 61.8022C283.087 60.4161 282.616 59.5031 281.376 58.4208C280.214 57.4056 279.468 55.889 278.322 54.9535C277.503 54.2852 277.113 52.923 276.669 51.9832C276.332 51.2692 275.917 50.6866 275.467 50.0468C275.391 49.9374 274.465 48.7775 274.437 48.7701C272.94 48.3763 272.944 46.2468 271.788 45.5486C271.046 45.1017 271.408 44.9083 270.887 44.4125C270.438 43.9847 269.802 43.7202 269.315 43.3031C268.289 42.4241 268.034 41.4209 267.598 40.2867C267.215 39.2922 266.625 37.7165 266.606 36.6728C266.584 35.4021 265.989 34.3163 265.966 32.9899C265.947 31.9134 265.667 30.5465 265.969 29.5172C266.665 27.1406 267.67 24.3938 269.471 22.9206C271.061 21.621 273.138 20.8043 274.364 18.9205" stroke="#464646" stroke-linecap="round" stroke-linejoin="round"/>
<path d="M331.855 72.1887C332.423 69.7437 332.643 67.7947 332.6 65.356C332.58 64.1796 332.975 61.9711 332.379 60.956C331.566 59.5699 331.095 58.6569 329.855 57.5745C328.693 56.5594 327.947 55.0428 326.801 54.1073C325.982 53.439 325.592 52.0768 325.148 51.137C324.812 50.423 324.396 49.8404 323.947 49.2006C323.87 49.0912 322.945 47.9313 322.916 47.9239C321.419 47.5301 321.423 45.4006 320.267 44.7024C319.525 44.2555 319.887 44.0621 319.366 43.5663C318.917 43.1385 318.281 42.874 317.794 42.4569C316.768 41.5779 316.513 40.5747 316.077 39.4405C315.694 38.446 315.104 36.8703 315.085 35.8266C315.063 34.5559 314.468 33.4701 314.445 32.1437C314.426 31.0672 314.146 29.7003 314.448 28.671C315.144 26.2944 316.149 23.5476 317.95 22.0744C319.54 20.7748 321.617 19.9581 322.843 18.0743" stroke="black" stroke-linecap="round" stroke-linejoin="round"/>
<path d="M380.334 71.3426C380.902 68.8976 381.122 66.9485 381.079 64.5099C381.059 63.3334 381.454 61.1249 380.858 60.1099C380.045 58.7237 379.574 57.8107 378.334 56.7284C377.172 55.7132 376.426 54.1966 375.28 53.2611C374.461 52.5928 374.071 51.2306 373.627 50.2908C373.291 49.5768 372.875 48.9943 372.426 48.3544C372.349 48.2451 371.424 47.0851 371.395 47.0777C369.898 46.684 369.902 44.5544 368.746 43.8562C368.004 43.4093 368.366 43.2159 367.845 42.7201C367.396 42.2923 366.76 42.0278 366.273 41.6107C365.247 40.7317 364.992 39.7285 364.556 38.5943C364.173 37.5998 363.583 36.0241 363.564 34.9804C363.542 33.7097 362.947 32.6239 362.924 31.2975C362.905 30.221 362.625 28.8541 362.927 27.8248C363.623 25.4483 364.628 22.7014 366.429 21.2282C368.019 19.9286 370.096 19.1119 371.322 17.2281" stroke="#3D3D3D" stroke-width="2" stroke-linecap="round" stroke-linejoin="round"/>
<path d="M428.813 70.4964C429.381 68.0514 429.6 66.1023 429.558 63.6637C429.537 62.4872 429.932 60.2787 429.337 59.2637C428.524 57.8775 428.053 56.9645 426.813 55.8822C425.65 54.867 424.905 53.3504 423.759 52.415C422.939 51.7466 422.55 50.3845 422.106 49.4446C421.769 48.7306 421.353 48.1481 420.904 47.5082C420.827 47.3989 419.902 46.2389 419.874 46.2315C418.377 45.8378 418.381 43.7082 417.224 43.01C416.483 42.5631 416.845 42.3697 416.324 41.8739C415.875 41.4461 415.239 41.1816 414.752 40.7645C413.726 39.8855 413.471 38.8823 413.035 37.7481C412.652 36.7536 412.061 35.1779 412.043 34.1342C412.021 32.8635 411.426 31.7777 411.403 30.4513C411.384 29.3748 411.104 28.0079 411.406 26.9786C412.102 24.6021 413.107 21.8552 414.908 20.382C416.498 19.0824 418.575 18.2657 419.8 16.3819" stroke="black" stroke-width="2" stroke-linecap="round" stroke-linejoin="round"/>
<path d="M137.927 74.8596C138.495 72.4146 138.714 70.4656 138.672 68.027C138.651 66.8505 139.046 64.642 138.451 63.6269C137.638 62.2408 137.167 61.3278 135.927 60.2455C134.764 59.2303 134.019 57.7137 132.873 56.7782C132.053 56.1099 131.664 54.7477 131.22 53.8079C130.883 53.0939 130.467 52.5113 130.018 51.8715C129.942 51.7621 129.016 50.6022 128.988 50.5948C127.491 50.201 127.495 48.0715 126.338 47.3733C125.597 46.9264 125.959 46.733 125.438 46.2372C124.989 45.8094 124.353 45.5449 123.866 45.1278C122.84 44.2488 122.585 43.2456 122.149 42.1114C121.766 41.1169 121.175 39.5412 121.157 38.4975C121.135 37.2268 120.54 36.141 120.517 34.8146C120.498 33.7381 120.218 32.3712 120.52 31.3419C121.216 28.9653 122.221 26.2185 124.022 24.7453C125.612 23.4457 127.689 22.629 128.914 20.7452" stroke="#B5B5B5" stroke-linecap="round" stroke-linejoin="round"/>
<path d="M95.8643 75.5938C96.4321 73.1488 96.6519 71.1997 96.6094 68.7611C96.5888 67.5846 96.9839 65.3762 96.3885 64.3611C95.5756 62.9749 95.1046 62.062 93.8641 60.9796C92.7018 59.9644 91.9565 58.4479 90.8106 57.5124C89.9909 56.844 89.6013 55.4819 89.1577 54.542C88.8208 53.8281 88.4048 53.2455 87.9558 52.6056C87.879 52.4963 86.9538 51.3363 86.9251 51.329C85.4285 50.9352 85.4327 48.8057 84.2759 48.1075C83.5343 47.6605 83.896 47.4671 83.3754 46.9713C82.9265 46.5436 82.2907 46.279 81.8035 45.8619C80.7776 44.9829 80.5226 43.9798 80.0864 42.8455C79.7032 41.8511 79.113 40.2753 79.0948 39.2316C79.0726 37.9609 78.4774 36.8752 78.4543 35.5488C78.4355 34.4722 78.1556 33.1053 78.4571 32.076C79.1537 29.6995 80.1584 26.9526 81.9597 25.4794C83.5495 24.1799 85.6261 23.3631 86.8519 21.4793" stroke="#B5B5B5" stroke-linecap="round" stroke-linejoin="round"/>
<path d="M45.9593 76.4649C46.5275 74.0199 46.7469 72.0708 46.7043 69.6322C46.6838 68.4557 47.0791 66.2472 46.4835 65.2322C45.6706 63.846 45.1997 62.933 43.9594 61.8507C42.7968 60.8355 42.052 59.3189 40.9056 58.3835C40.0863 57.7151 39.6964 56.353 39.2531 55.4131C38.9163 54.6991 38.5 54.1166 38.0508 53.4767C37.9741 53.3674 37.0487 52.2074 37.0201 52.2C35.5237 51.8063 35.5275 49.6767 34.3707 48.9785C33.6296 48.5316 33.9915 48.3382 33.4705 47.8424C33.0219 47.4146 32.3855 47.1501 31.8985 46.733C30.8725 45.854 30.6178 44.8509 30.1811 43.7166C29.7983 42.7221 29.2079 41.1464 29.1897 40.1027C29.1675 38.832 28.5722 37.7462 28.5491 36.4198C28.5303 35.3433 28.251 33.9764 28.5525 32.9471C29.2488 30.5706 30.2535 27.8237 32.0549 26.3505C33.6445 25.0509 35.7212 24.2342 36.9472 22.3504" stroke="#B5B5B5" stroke-linecap="round" stroke-linejoin="round"/>
<path d="M234.897 73.8811C235.465 71.4361 235.685 69.4871 235.642 67.0484C235.622 65.8719 236.017 63.6635 235.421 62.6484C234.608 61.2623 234.137 60.3493 232.897 59.2669C231.735 58.2518 230.989 56.7352 229.843 55.7997C229.024 55.1313 228.634 53.7692 228.19 52.8293C227.854 52.1154 227.438 51.5328 226.989 50.893C226.912 50.7836 225.987 49.6236 225.958 49.6163C224.461 49.2225 224.465 47.093 223.309 46.3948C222.567 45.9479 222.929 45.7545 222.408 45.2587C221.959 44.8309 221.323 44.5664 220.836 44.1493C219.81 43.2702 219.555 42.2671 219.119 41.1329C218.736 40.1384 218.146 38.5627 218.127 37.519C218.105 36.2483 217.51 35.1625 217.487 33.8361C217.468 32.7596 217.188 31.3927 217.49 30.3634C218.186 27.9868 219.191 25.24 220.992 23.7668C222.582 22.4672 224.659 21.6504 225.885 19.7667" stroke="#9B9B9B" stroke-linecap="round" stroke-linejoin="round"/>
<path d="M477.292 69.6502C477.86 67.2052 478.079 65.2561 478.037 62.8175C478.016 61.641 478.411 59.4325 477.816 58.4175C477.003 57.0313 476.532 56.1183 475.292 55.036C474.129 54.0208 473.384 52.5042 472.238 51.5688C471.418 50.9004 471.029 49.5383 470.585 48.5984C470.248 47.8844 469.832 47.3019 469.383 46.662C469.306 46.5527 468.381 45.3927 468.353 45.3853C466.856 44.9916 466.86 42.862 465.703 42.1638C464.962 41.7169 465.324 41.5235 464.803 41.0277C464.354 40.5999 463.718 40.3354 463.231 39.9183C462.205 39.0393 461.95 38.0362 461.514 36.9019C461.131 35.9074 460.54 34.3317 460.522 33.288C460.5 32.0173 459.905 30.9315 459.882 29.6051C459.863 28.5286 459.583 27.1617 459.885 26.1324C460.581 23.7559 461.586 21.009 463.387 19.5358C464.977 18.2362 467.054 17.4195 468.279 15.5357" stroke="#434343" stroke-width="3" stroke-linecap="round" stroke-linejoin="round"/>
<path d="M525.771 68.804C526.338 66.359 526.558 64.4099 526.516 61.9713C526.495 60.7948 526.89 58.5863 526.295 57.5713C525.482 56.1851 525.011 55.2721 523.771 54.1898C522.608 53.1746 521.863 51.658 520.717 50.7226C519.897 50.0542 519.508 48.6921 519.064 47.7522C518.727 47.0383 518.311 46.4557 517.862 45.8158C517.785 45.7065 516.86 44.5465 516.832 44.5391C515.335 44.1454 515.339 42.0158 514.182 41.3176C513.441 40.8707 513.803 40.6773 513.282 40.1815C512.833 39.7538 512.197 39.4892 511.71 39.0721C510.684 38.1931 510.429 37.19 509.993 36.0557C509.61 35.0612 509.019 33.4855 509.001 32.4418C508.979 31.1711 508.384 30.0853 508.361 28.7589C508.342 27.6824 508.062 26.3155 508.364 25.2862C509.06 22.9097 510.065 20.1628 511.866 18.6896C513.456 17.3901 515.533 16.5733 516.758 14.6895" stroke="black" stroke-width="3" stroke-linecap="round" stroke-linejoin="round"/>
<path d="M569.972 68.0325C570.54 65.5875 570.76 63.6384 570.717 61.1998C570.697 60.0233 571.092 57.8149 570.496 56.7998C569.683 55.4136 569.212 54.5007 567.972 53.4183C566.81 52.4031 566.064 50.8866 564.918 49.9511C564.099 49.2827 563.709 47.9206 563.265 46.9807C562.928 46.2668 562.513 45.6842 562.063 45.0443C561.987 44.935 561.061 43.775 561.033 43.7677C559.536 43.3739 559.54 41.2444 558.384 40.5462C557.642 40.0992 558.004 39.9058 557.483 39.41C557.034 38.9823 556.398 38.7177 555.911 38.3006C554.885 37.4216 554.63 36.4185 554.194 35.2842C553.811 34.2898 553.221 32.714 553.202 31.6703C553.18 30.3996 552.585 29.3139 552.562 27.9875C552.543 26.9109 552.263 25.544 552.565 24.5147C553.261 22.1382 554.266 19.3914 556.067 17.9181C557.657 16.6186 559.734 15.8018 560.96 13.918" stroke="#565656" stroke-width="4" stroke-linecap="round" stroke-linejoin="round"/>
<path d="M619.139 65.7459C619.707 63.3009 619.927 61.3518 619.884 58.9132C619.863 57.7367 620.258 55.5282 619.663 54.5132C618.85 53.127 618.379 52.214 617.139 51.1317C615.976 50.1165 615.231 48.5999 614.085 47.6645C613.266 46.9961 612.876 45.634 612.432 44.6941C612.095 43.9802 611.679 43.3976 611.23 42.7577C611.154 42.6484 610.228 41.4884 610.2 41.481C608.703 41.0873 608.707 38.9577 607.551 38.2595C606.809 37.8126 607.171 37.6192 606.65 37.1234C606.201 36.6957 605.565 36.4311 605.078 36.014C604.052 35.135 603.797 34.1319 603.361 32.9976C602.978 32.0031 602.388 30.4274 602.369 29.3837C602.347 28.113 601.752 27.0272 601.729 25.7008C601.71 24.6243 601.43 23.2574 601.732 22.2281C602.428 19.8516 603.433 17.1047 605.234 15.6315C606.824 14.332 608.901 13.5152 610.127 11.6314" stroke="black" stroke-width="4" stroke-linecap="round" stroke-linejoin="round"/>
<path d="M671.182 64.8377C671.75 62.3927 671.97 60.4436 671.928 58.005C671.907 56.8285 672.302 54.6201 671.707 53.605C670.894 52.2188 670.423 51.3059 669.182 50.2235C668.02 49.2083 667.275 47.6918 666.129 46.7563C665.309 46.0879 664.919 44.7258 664.476 43.7859C664.139 43.072 663.723 42.4894 663.274 41.8495C663.197 41.7402 662.272 40.5802 662.243 40.5729C660.747 40.1791 660.751 38.0496 659.594 37.3514C658.852 36.9044 659.214 36.711 658.694 36.2152C658.245 35.7875 657.609 35.5229 657.122 35.1058C656.096 34.2268 655.841 33.2237 655.404 32.0894C655.021 31.095 654.431 29.5192 654.413 28.4755C654.391 27.2048 653.796 26.119 653.772 24.7927C653.754 23.7161 653.474 22.3492 653.775 21.3199C654.472 18.9434 655.476 16.1965 657.278 14.7233C658.868 13.4238 660.944 12.607 662.17 10.7232" stroke="#4A4A4A" stroke-width="5" stroke-linecap="round" stroke-linejoin="round"/>
<path d="M719.65 63.2774C720.22 60.8323 720.436 58.8834 720.393 56.4447C720.373 55.2682 720.769 53.0598 720.174 52.0447C719.358 50.6586 718.886 49.7456 717.647 48.6632C716.489 47.648 715.742 46.1314 714.595 45.196C713.776 44.5276 713.386 43.1655 712.942 42.2256C712.605 41.5117 712.19 40.9291 711.74 40.2892C711.664 40.1799 710.738 39.0199 710.71 39.0126C709.213 38.6188 709.217 36.4893 708.061 35.7911C707.319 35.3441 707.681 35.1507 707.16 34.6549C706.711 34.2272 706.075 33.9626 705.588 33.5455C704.562 32.6665 704.307 31.6634 703.871 30.5291C703.488 29.5347 702.898 27.9589 702.879 26.9152C702.857 25.6445 702.262 24.5587 702.239 23.2324C702.22 22.1558 701.94 20.7889 702.242 19.7596C702.938 17.3831 703.943 14.6362 705.744 13.163C707.334 11.8634 709.411 11.0467 710.637 9.16291" stroke="black" stroke-width="5" stroke-linecap="round" stroke-linejoin="round"/>
<path d="M768.129 62.4312C768.699 59.9862 768.915 58.0372 768.872 55.5985C768.852 54.4221 769.248 52.2136 768.653 51.1985C767.837 49.8124 767.365 48.8994 766.126 47.8171C764.968 46.8018 764.221 45.2853 763.071 44.3499C762.253 43.6815 761.866 42.3193 761.421 41.3794C761.088 40.6654 760.671 40.0829 760.218 39.4431C760.145 39.3337 759.219 38.1737 759.19 38.1664C757.693 37.7726 757.698 35.6431 756.538 34.9449C755.796 34.498 756.163 34.3045 755.641 33.8087C755.192 33.381 754.552 33.1165 754.067 32.6994C753.039 31.8204 752.786 30.8172 752.353 29.6829C751.965 28.6885 751.374 27.1128 751.356 26.0691C751.333 24.7984 750.744 23.7125 750.721 22.3861C750.702 21.3096 750.421 19.9427 750.724 18.9134C751.417 16.5369 752.425 13.79 754.225 12.3168C755.814 11.0173 757.889 10.2006 759.118 8.31672" stroke="#454545" stroke-width="6" stroke-linecap="round" stroke-linejoin="round"/>
<path d="M816.608 61.585C817.178 59.14 817.394 57.191 817.351 54.7524C817.331 53.5759 817.727 51.3674 817.132 50.3523C816.316 48.9662 815.844 48.0533 814.605 46.9709C813.447 45.9556 812.7 44.4391 811.55 43.5037C810.732 42.8353 810.345 41.4731 809.9 40.5333C809.567 39.8193 809.15 39.2367 808.697 38.5969C808.624 38.4875 807.698 37.3275 807.669 37.3202C806.172 36.9264 806.177 34.7969 805.017 34.0987C804.275 33.6518 804.642 33.4583 804.12 32.9625C803.671 32.5348 803.031 32.2703 802.546 31.8532C801.518 30.9742 801.265 29.971 800.832 28.8367C800.444 27.8423 799.853 26.2666 799.835 25.2229C799.812 23.9522 799.223 22.8664 799.2 21.54C799.181 20.4634 798.9 19.0965 799.203 18.0672C799.896 15.6907 800.904 12.9438 802.704 11.4706C804.293 10.1711 806.368 9.35436 807.597 7.47053" stroke="black" stroke-width="6" stroke-linecap="round" stroke-linejoin="round"/>
<path d="M865.086 60.7388C865.657 58.2938 865.873 56.3448 865.83 53.9062C865.81 52.7297 866.206 50.5212 865.611 49.5061C864.795 48.12 864.323 47.2071 863.084 46.1247C861.925 45.1094 861.179 43.5929 860.028 42.6575C859.211 41.9891 858.823 40.6269 858.379 39.687C858.046 38.9731 857.629 38.3905 857.176 37.7507C857.103 37.6413 856.177 36.4813 856.148 36.474C854.651 36.0802 854.656 33.9507 853.496 33.2525C852.754 32.8056 853.121 32.6121 852.599 32.1163C852.149 31.6886 851.51 31.4241 851.025 31.007C849.997 30.128 849.744 29.1248 849.311 27.9905C848.922 26.9961 848.332 25.4204 848.313 24.3767C848.291 23.106 847.702 22.0202 847.679 20.6938C847.66 19.6172 847.379 18.2503 847.682 17.221C848.375 14.8445 849.383 12.0976 851.183 10.6245C852.772 9.3249 854.847 8.50817 856.076 6.62434" stroke="#333333" stroke-width="7" stroke-linecap="round" stroke-linejoin="round"/>
<path d="M913.54 58.4649C914.111 56.0199 914.327 54.0709 914.284 51.6323C914.264 50.4558 914.66 48.2473 914.065 47.2322C913.249 45.8461 912.777 44.9332 911.538 43.8508C910.379 42.8355 909.633 41.319 908.483 40.3836C907.665 39.7152 907.278 38.353 906.833 37.4131C906.5 36.6991 906.083 36.1166 905.63 35.4768C905.557 35.3674 904.631 34.2074 904.602 34.2001C903.105 33.8063 903.11 31.6768 901.95 30.9786C901.208 30.5317 901.575 30.3382 901.053 29.8424C900.603 29.4147 899.964 29.1502 899.479 28.7331C898.451 27.8541 898.198 26.8509 897.765 25.7166C897.377 24.7222 896.786 23.1465 896.767 22.1028C896.745 20.8321 896.156 19.7462 896.133 18.4198C896.114 17.3433 895.833 15.9764 896.136 14.9471C896.829 12.5706 897.837 9.82372 899.637 8.35053C901.226 7.05098 903.301 6.23425 904.53 4.35041" stroke="black" stroke-width="7" stroke-linecap="round" stroke-linejoin="round"/>
<path d="M962.044 59.0464C962.615 56.6014 962.831 54.6524 962.788 52.2138C962.767 51.0373 963.164 48.8288 962.569 47.8137C961.753 46.4276 961.28 45.5147 960.042 44.4323C958.883 43.4171 958.137 41.9005 956.986 40.9651C956.169 40.2967 955.781 38.9345 955.337 37.9947C955.004 37.2807 954.587 36.6981 954.134 36.0583C954.061 35.9489 953.135 34.7889 953.106 34.7816C951.609 34.3878 951.614 32.2583 950.454 31.5602C949.712 31.1132 950.079 30.9197 949.557 30.424C949.107 29.9962 948.468 29.7317 947.983 29.3146C946.955 28.4356 946.702 27.4324 946.269 26.2982C945.88 25.3038 945.29 23.728 945.271 22.6843C945.249 21.4136 944.66 20.3278 944.637 19.0014C944.618 17.9248 944.337 16.558 944.64 15.5286C945.333 13.1522 946.341 10.4053 948.141 8.93207C949.73 7.63252 951.805 6.81579 953.034 4.93195" stroke="#262626" stroke-width="8" stroke-linecap="round" stroke-linejoin="round"/>
<path d="M186.418 74.7273C186.986 72.2823 187.206 70.3333 187.163 67.8946C187.143 66.7182 187.538 64.5097 186.943 63.4946C186.13 62.1085 185.659 61.1955 184.418 60.1131C183.256 59.098 182.511 57.5814 181.365 56.6459C180.545 55.9775 180.155 54.6154 179.712 53.6755C179.375 52.9616 178.959 52.379 178.51 51.7392C178.433 51.6298 177.508 50.4698 177.479 50.4625C175.982 50.0687 175.987 47.9392 174.83 47.241C174.088 46.7941 174.45 46.6007 173.929 46.1049C173.48 45.6771 172.845 45.4126 172.357 44.9955C171.332 44.1164 171.077 43.1133 170.64 41.9791C170.257 40.9846 169.667 39.4089 169.649 38.3652C169.627 37.0945 169.031 36.0087 169.008 34.6823C168.989 33.6058 168.71 32.2389 169.011 31.2096C169.708 28.833 170.712 26.0862 172.514 24.613C174.103 23.3134 176.18 22.4966 177.406 20.6129" stroke="#ADADAD" stroke-linecap="round" stroke-linejoin="round"/>
<path d="M569.591 67.9033L997.978 60.4258" stroke="#FF0000" stroke-width="8" stroke-linecap="round" stroke-linejoin="round"/>
<path d="M236.624 73.4939L573.131 67.9765" stroke="#FFAF36" stroke-width="8" stroke-linecap="round" stroke-linejoin="round"/>
<path d="M4.92958 77.8953L238.044 73.1122" stroke="#00D770" stroke-width="8" stroke-linecap="round" stroke-linejoin="round"/>
</svg>
