<svg width="413" height="112" viewBox="0 0 413 112" fill="none" xmlns="http://www.w3.org/2000/svg">
<path d="M109.46 44.092C108.84 41.6485 107.419 40.1465 107.374 37.568C107.357 36.6028 107.487 34.4354 108.437 33.9046C109.373 33.382 109.814 32.1061 109.794 30.9653C109.767 29.4005 110.042 28.6687 110.718 27.3836C111.057 26.7386 112.668 25.7215 113.358 25.3567C114.497 24.7548 114.845 23.6012 115.71 22.8748C116.677 22.0631 117.645 21.2229 118.625 20.4153C119.052 20.0629 119.533 19.2947 120.01 19.0921C121.206 18.5828 122.622 18.7609 123.948 18.7378" stroke="black" stroke-linecap="round" stroke-linejoin="round"/>
<path d="M124.511 18.7285C124.798 18.5993 127.285 16.2486 127.305 17.3958C127.321 18.3403 127.994 17.9515 128.499 17.6442C129.211 17.2111 128.927 18.8878 129.861 18.5716C130.66 18.3006 131.525 20.8841 132.43 21.4267C133.306 21.9513 133.671 22.2763 134.714 22.2581C135.439 22.2454 136.142 22.0211 136.413 22.799" stroke="black" stroke-linecap="round" stroke-linejoin="round"/>
<path d="M136.414 22.799C137.792 23.6504 139.744 26.3199 141.389 24.4395C141.62 24.1749 142.422 23.5496 142.764 23.5436C143.256 23.535 143.878 22.4166 144.35 22.0899C144.858 21.7439 145.531 21.4794 145.959 21.0792C146.443 20.6315 147.243 20.694 147.633 20.1787C148.254 19.3674 150.877 20.5349 151.529 20.697C152.789 21.0128 153.648 20.7579 154.552 21.8804C155.477 23.0289 155.047 25.3494 155.073 26.8157C155.101 28.4041 154.848 29.8624 154.876 31.4623C154.912 33.5504 153.137 38.4579 155.301 39.8691" stroke="black" stroke-linecap="round" stroke-linejoin="round"/>
<path d="M155.301 39.8691C156.303 40.0966 158.19 40.7749 158.995 41.5156C159.169 41.6776 159.869 43.4049 159.872 43.5605C160.016 46.0845 160.218 47.8812 161.737 49.8985C163.044 51.6288 163.432 53.84 163.469 55.9852C163.487 57.0225 164.063 57.7159 164.081 58.7639C164.102 59.9603 164.236 60.7099 165.261 61.3733" stroke="black" stroke-linecap="round" stroke-linejoin="round"/>
<path d="M164.432 62.5297C164.486 65.5923 164.851 68.1296 163.514 70.8179C163.073 71.6997 162.086 73.1787 162.103 74.1381C162.112 74.6286 162.278 75.1876 161.841 75.4745C161.263 75.8523 161.737 76.8624 161.312 77.4168C160.907 77.9451 161.175 78.561 160.907 79.1348C160.707 79.5504 160.261 79.7288 160.075 80.132C159.869 80.5883 160.078 81.1295 159.822 81.5632C159.191 82.6039 158.121 83.7759 157.841 84.8933C157.714 85.4068 157.326 86.0384 157.263 86.5044C157.143 87.3877 156.911 87.5974 156.71 88.3365C156.489 89.1758 155.264 91.3081 154.512 91.5126" stroke="black" stroke-linecap="round" stroke-linejoin="round"/>
<path d="M154.512 91.5119C152.444 91.548 151.181 91.4872 149.268 90.5894C148.521 90.2361 147.422 89.3776 146.587 89.3686C144.576 89.3452 142.96 89.1442 141.232 88.1624C139.957 87.4392 138.716 87.4144 137.252 86.9487C135.76 86.4734 134.862 86.0285 133.837 85.0273" stroke="black" stroke-linecap="round" stroke-linejoin="round"/>
<path d="M133.838 85.0273C133.675 85.2351 132.383 87.1422 131.834 86.8054C131.179 86.4034 130.109 85.2088 129.729 84.5285C129.354 83.8573 129.101 83.6639 128.577 83.1225C128.148 82.678 128.349 81.9554 127.69 81.5848C126.443 80.8825 125.344 80.3554 124.778 78.8463C124.339 77.6765 122.984 77.7801 122.682 76.2529C122.559 75.6266 121.926 75.3128 121.578 74.8454C121.212 74.3533 121.323 73.8201 121.082 73.2852C120.542 72.0935 120.634 70.9671 120.611 69.6329C120.589 68.3815 120.567 67.13 120.545 65.8786C120.522 64.5386 121.885 64.7476 122.486 64.1173" stroke="black" stroke-linecap="round" stroke-linejoin="round"/>
<path d="M122.487 64.1179C122.454 62.2169 122.421 60.3158 122.387 58.4147C122.362 56.9398 123.571 55.8147 124.294 54.6731" stroke="black" stroke-linecap="round" stroke-linejoin="round"/>
<path d="M124.293 54.6724C123.047 53.698 120.251 52.3264 119.731 50.6002C119.506 49.8551 118.996 49.147 118.552 48.4971" stroke="black" stroke-linecap="round" stroke-linejoin="round"/>
<path d="M118.552 48.4971C117.214 48.5204 116.238 48.5603 115.042 49.1446C114.095 49.6075 113.377 49.8849 112.266 49.7322C111.058 49.5655 111.215 47.7782 111.2 46.9137C111.149 43.9532 111.327 42.9183 114.51 42.8627" stroke="black" stroke-linecap="round" stroke-linejoin="round"/>
<path d="M114.51 42.8628C115.944 40.7904 115.55 37.8945 115.507 35.4294C115.49 34.4964 115.937 33.3132 116.586 32.7006C117.087 32.2277 116.946 30.5198 117.084 29.8398C117.519 27.6784 116.583 25.4118 118.688 24.0275C119.571 23.4473 120.359 22.1538 121.113 21.2916C121.723 20.5926 123.142 20.1329 123.395 19.318" stroke="black" stroke-linecap="round" stroke-linejoin="round"/>
<path d="M118.298 33.9545C118.72 31.8862 121.127 31.6235 123.045 31.59" stroke="black" stroke-linecap="round" stroke-linejoin="round"/>
<path d="M117.226 37.1102C119.02 37.0788 119.908 36.5363 120.79 35.0513C121.469 33.9062 122.797 32.9697 124.014 32.3964C124.195 32.3104 124.885 30.7424 125.154 30.4113C125.463 30.0289 125.404 29.5065 125.82 29.1636C126.189 28.8594 126.579 29.1125 126.638 28.5152C126.737 27.5109 127.122 27.0057 127.396 26.1569C127.669 25.308 127.422 24.1355 127.407 23.241" stroke="black" stroke-linecap="round" stroke-linejoin="round"/>
<path d="M125.635 34.6826C127.098 33.7195 127.46 33.1405 128.085 31.6442C128.267 31.2097 127.947 30.6412 128.154 30.2012C128.378 29.7275 128.653 30.0918 128.639 29.2737C128.621 28.2643 129.18 27.6276 129.565 26.7539C129.975 25.822 130.825 25.4451 130.806 24.3236" stroke="black" stroke-linecap="round" stroke-linejoin="round"/>
<path d="M129.588 35.1842C130.901 34.1401 130.968 33.5798 130.941 32.0228C130.928 31.3004 130.619 30.1575 131.453 30.0015C131.515 29.9897 132.945 27.1869 133.104 26.8506" stroke="black" stroke-linecap="round" stroke-linejoin="round"/>
<path d="M133.104 26.8508C135.074 28.3539 136.265 30.4147 136.311 33.0547C136.336 34.5053 137.061 35.3688 137.656 36.6281C138.193 37.7642 138.417 39.0835 138.97 40.155" stroke="black" stroke-linecap="round" stroke-linejoin="round"/>
<path d="M138.97 40.1541C139.527 41.7804 139.584 43.0183 139.613 44.7066C139.627 45.4883 139.93 47.1348 139.526 47.8138C138.674 49.2504 137.46 50.7084 136.991 52.3269C136.706 53.3123 135.208 54.0697 134.271 54.276C133.075 54.5404 132.507 55.0995 131.203 55.1222C128.924 55.162 126.817 54.6282 124.575 54.6673" stroke="black" stroke-linecap="round" stroke-linejoin="round"/>
<path d="M133.854 48.8841C131.468 49.422 129.829 50.1854 127.374 50.2283C126.561 50.2425 126.092 47.8384 126.565 47.3417C127.306 46.5618 128.313 46.3629 129.277 45.6255C130.17 44.9408 132.128 45.2201 133.456 45.197" stroke="black" stroke-linecap="round" stroke-linejoin="round"/>
<path d="M127.574 48.9101C128.653 48.4235 131.809 47.0388 132.311 45.9753" stroke="black" stroke-linecap="round" stroke-linejoin="round"/>
<path d="M129.435 42.6029C129.736 42.1985 131.189 41.1605 130.774 40.4558C130.417 39.8479 129.068 40.8184 128.826 40.0142C128.586 39.2144 127.978 39.3199 127.737 38.5758C127.494 37.8231 127.087 37.1718 127.073 36.3687" stroke="black" stroke-linecap="round" stroke-linejoin="round"/>
<path d="M129.86 34.6081C131.552 34.2429 133.2 34.2649 134.924 34.2348" stroke="black" stroke-linecap="round" stroke-linejoin="round"/>
<path d="M118.111 39.3773C119.288 38.4134 121.829 36.5323 123.431 37.5734" stroke="black" stroke-linecap="round" stroke-linejoin="round"/>
<path d="M118.694 40.5073C119.886 40.5158 122.853 41.3902 123.757 40.0705C124.679 38.724 125.08 37.8287 123.155 37.8623" stroke="black" stroke-linecap="round" stroke-linejoin="round"/>
<path d="M122.335 39.3034C121.211 40.8284 121.354 39.6054 121.918 39.5956C122.836 39.5796 122.062 40.7399 121.666 40.4084C121.411 40.195 121.28 38.7798 121.762 38.7429C122.586 38.6792 122.585 40.1788 122.073 40.4491" stroke="black" stroke-linecap="round" stroke-linejoin="round"/>
<path d="M132.167 37.7057C132.127 35.4399 132.195 36.0164 133.947 35.6623C134.697 35.5107 134.339 34.8157 135.496 34.7955" stroke="black" stroke-linecap="round" stroke-linejoin="round"/>
<path d="M131.036 37.4406C133.011 37.4061 136.115 37.9575 136.07 35.3561" stroke="black" stroke-linecap="round" stroke-linejoin="round"/>
<path d="M133.826 35.9651C133.794 35.9885 132.806 36.8758 132.71 36.5542C132.698 36.5158 132.699 35.9434 132.705 36.3009C132.717 37.0001 133.147 36.7549 133.554 36.5394" stroke="black" stroke-linecap="round" stroke-linejoin="round"/>
<path d="M121.855 76.3936C124.103 80.5233 127.7 85.0093 132.165 86.8944C133.326 87.3854 133.073 87.9219 133.406 89.0279C133.544 89.4854 134.022 89.6249 134.176 90.0285C134.378 90.5627 134.231 91.4143 134.241 91.9769C134.277 94.0257 134.312 96.0746 134.348 98.1234C134.376 99.7111 133.323 100.877 132.603 102.179C132.329 102.675 132.02 103.552 131.569 103.893C131.374 104.04 130.856 104.106 130.81 104.381C130.737 104.838 130.902 105.202 130.405 105.355C129.868 105.52 129.979 106.67 129.997 107.058C130.05 108.204 131.749 108.211 132.71 108.294C134.31 108.431 135.391 108.247 138.029 108.201C139.349 108.178 138.629 108.19 142.586 108.121C144.746 108.084 141.862 107.801 146.186 108.058C147.982 108.027 147.441 108.037 149.422 108.002C151.219 107.971 146.906 108.046 156.623 107.876C157.75 107.917 160.58 107.836 161.657 107.818C162.899 107.067 161.751 102.604 161.73 101.37C161.687 98.9116 161.139 97.378 160.43 95.1167C159.863 93.3063 159.464 90.8982 158.141 89.4517C157.276 88.5091 157.646 85.9869 156.097 85.4941" stroke="black" stroke-linecap="round" stroke-linejoin="round"/>
<path d="M150.041 93.5864C151.273 94.7154 151.27 94.1356 152.589 94.1125C153.338 94.0995 154.093 94.0863 154.842 94.0732" stroke="black" stroke-linecap="round" stroke-linejoin="round"/>
<path d="M148.974 97.0278C150.376 97.2526 153.151 97.297 154.348 98.0752" stroke="black" stroke-linecap="round" stroke-linejoin="round"/>
<path d="M133.591 87.0288C135.402 88.8867 135.121 91.5681 136.801 93.3747C137.441 94.0634 137.093 95.7162 137.421 96.6602" stroke="black" stroke-linecap="round" stroke-linejoin="round"/>
<path d="M132.726 85.9022C133.266 85.1537 133.993 84.4026 134.376 83.5918" stroke="black" stroke-linecap="round" stroke-linejoin="round"/>
<path d="M132.167 86.1977C132.652 85.0531 133.271 84.5602 134.385 84.1616" stroke="black" stroke-linecap="round" stroke-linejoin="round"/>
<path d="M159.902 77.1556C159.072 76.561 158.25 76.0741 157.337 75.6316C156.97 75.4545 156.155 75.3587 155.901 75.0704C155.406 74.5027 153.78 73.2693 153.067 73.2817" stroke="black" stroke-linecap="round" stroke-linejoin="round"/>
<path d="M125.751 57.4998C126.075 58.8759 126.896 60.3926 127.668 61.5231C128.125 62.1914 128.269 62.9108 128.892 63.4984C129.545 64.114 130.153 63.8606 130.936 64.0333C132.047 64.2774 132.658 64.1432 133.486 64.9078C134.417 65.767 135.689 66.2004 136.685 67.0699C137.721 67.9745 139.346 69.1772 140.674 69.6632C141.922 70.1199 142.303 70.6845 143.4 71.4537C144.137 71.9715 144.926 73.4873 145.262 74.3369C145.59 75.1517 146.511 75.9933 146.931 76.8114" stroke="black" stroke-linecap="round" stroke-linejoin="round"/>
<path d="M148.058 76.7918C148.024 74.85 147.173 74.7528 146.368 73.1137C145.901 72.1549 145.606 71.1539 144.786 70.352C143.799 69.3838 143.406 68.086 142.255 67.132C141.203 66.2563 140.608 64.8728 139.527 63.9783C138.03 62.7398 135.875 61.6162 134.826 60.0828C134.361 59.4025 133.39 59.3995 133.372 58.3493C133.353 57.2614 133.334 56.1734 133.315 55.0854" stroke="black" stroke-linecap="round" stroke-linejoin="round"/>
<path d="M139.496 54.1222C139.766 53.4283 140.804 50.5966 141.463 50.3159C142.609 49.8303 142.928 47.6625 143.31 46.6389" stroke="black" stroke-linecap="round" stroke-linejoin="round"/>
<path d="M143.294 45.7835C143.763 42.4191 144.87 39.2199 144.81 35.7732C144.8 35.1864 144.722 34.8321 145.128 34.4052C145.892 33.6063 145.584 35.1734 144.741 35.4895C142.665 36.2691 141.139 36.6928 138.91 36.7317" stroke="black" stroke-linecap="round" stroke-linejoin="round"/>
<path d="M145.761 42.0322C146.151 41.5141 146.622 40.2826 147.138 40.0115" stroke="black" stroke-linecap="round" stroke-linejoin="round"/>
<path d="M147.212 44.2892C147.199 43.5289 147.185 42.7686 147.172 42.0083" stroke="black" stroke-linecap="round" stroke-linejoin="round"/>
<path d="M122.136 57.6436C121.037 57.4592 119.951 56.7084 119.154 55.9296C118.714 55.4988 118.202 55.0379 117.863 54.5182C117.728 54.3121 117.634 54.1259 117.48 53.9215C117.223 53.5804 117.31 53.1789 117.074 52.8489C116.658 52.2713 115.965 51.9863 115.587 51.373" stroke="black" stroke-linecap="round" stroke-linejoin="round"/>
<path d="M141.232 75.6476C142.132 76.4153 143.377 76.6385 144.113 77.5597C144.427 77.9541 144.901 78.1693 145.299 78.4823C145.653 78.7632 146.118 79.23 146.588 79.2217C147.365 79.2082 148.157 79.2322 148.941 79.1807C149.425 79.1487 149.647 77.9558 149.732 77.5373C149.804 77.1611 150.157 76.9357 150.265 76.5768C150.359 76.261 150.559 75.8797 150.754 75.6171C151.096 75.1584 151.633 74.9141 152.032 74.4779C152.34 74.1376 152.839 73.7326 153.054 73.3432C153.289 72.9264 153.709 72.8719 153.988 72.5121C154.225 72.2095 154.534 71.9342 154.713 71.594C155.231 70.6109 155.455 69.5758 155.729 68.497C155.909 67.7898 156.314 67.27 156.545 66.6111C156.769 65.9838 156.557 65.2563 156.795 64.6144C157.054 63.9165 157.622 63.381 157.766 62.658C157.839 62.3089 158.137 62.2609 158.268 61.9779C158.358 61.7936 158.698 61.2663 158.687 61.0794C158.658 60.6393 157.993 60.5195 157.732 60.2663C157.318 59.8594 157.211 59.4321 156.96 58.9366C156.421 57.8948 156.345 56.8328 155.16 56.3565C154.636 56.1457 154.095 56.1909 153.702 55.7328C153.163 55.0988 152.513 54.6517 151.863 54.1425C151.465 53.8281 151.504 53.6232 151.248 53.2249C151.072 52.9552 150.779 52.9089 150.758 52.5543C150.717 51.8002 151.187 51.3843 151.253 50.6819C151.307 50.1082 151.091 48.7152 151.982 48.6997C152.844 48.6846 153.643 48.7064 153.662 49.7872C153.672 50.339 153.253 51.2582 154.023 51.2448C154.465 51.2371 155.267 50.5961 155.272 50.1061C155.3 48.8317 155.364 47.5681 155.341 46.2709C155.33 45.6541 155.275 44.9603 154.631 45.6342C154.344 45.9356 152.987 45.8293 153.401 45.8221C154.178 45.8085 151.585 45.978 151.902 45.3726C152.351 44.5214 151.561 45.0437 151.549 44.3598C151.534 43.4767 151.084 43.0497 150.258 42.6849C149.913 42.5331 149.564 42.1279 149.199 42.0921C148.921 42.0641 148.813 41.6025 149.118 41.5501C149.545 41.4755 149.715 40.9962 150.15 40.9886C150.592 40.9809 151.034 40.9732 151.476 40.9655C152.224 40.9524 152.868 40.6691 153.667 40.6552C155.043 40.6312 156.419 40.6071 157.795 40.5831" stroke="black" stroke-linecap="round" stroke-linejoin="round"/>
<path d="M154.713 40.9097C156.267 40.8825 157.021 41.5764 157.944 42.6121C158.373 43.0924 158.347 44.4525 158.935 44.6393" stroke="black" stroke-linecap="round" stroke-linejoin="round"/>
<path d="M151.141 43.8243C151.459 43.291 152.116 42.5069 152.83 42.5723C153.752 42.6562 153.324 44.2846 153.441 44.871C153.496 45.1557 154.327 44.5949 154.426 44.5367C154.892 44.2601 154.787 45.1567 154.791 45.4209C154.802 46.0312 154.831 46.0843 155.342 46.3317" stroke="black" stroke-linecap="round" stroke-linejoin="round"/>
<path d="M160.823 91.0647C160.882 91.9949 161.503 92.4703 161.952 93.2487C162.613 94.3761 163.323 95.4342 163.603 96.7211" stroke="black" stroke-linecap="round" stroke-linejoin="round"/>
<path d="M162.412 90.2212C162.706 91.1394 163.175 91.821 163.645 92.6447C163.925 93.1262 163.984 93.6586 164.228 94.1292" stroke="black" stroke-linecap="round" stroke-linejoin="round"/>
<path d="M159.251 39.4724C161.262 39.8736 161.939 41.8584 163.233 43.2969C163.473 43.5648 164.655 44.2683 163.757 44.2839" stroke="black" stroke-linecap="round" stroke-linejoin="round"/>
<path d="M161.103 38.0811C162.698 38.376 163.868 39.9959 164.782 41.2775" stroke="black" stroke-linecap="round" stroke-linejoin="round"/>
<path d="M154.379 68.3572C153.483 67.6902 152.541 67.2767 151.723 66.5426C151.187 66.0649 150.83 65.2407 150.31 64.8434C149.688 64.3637 148.535 62.8756 148.52 62.0247C148.513 61.5978 148.158 61.3054 148.15 60.8464C148.137 60.059 148.435 60.001 149.101 59.733C150.949 58.9838 152.577 56.6466 153.272 54.8021" stroke="black" stroke-linecap="round" stroke-linejoin="round"/>
<path d="M147.138 62.4902C146.383 62.127 145.784 61.7376 145.113 61.3015C144.789 61.0894 144.882 60.7214 144.488 60.5969" stroke="black" stroke-linecap="round" stroke-linejoin="round"/>
<path d="M136.862 52.4436C137.643 52.977 138.328 53.622 139.163 54.0687C139.713 54.3626 140.179 54.528 140.564 55.0626C140.776 55.3567 141.18 55.571 141.352 55.8322C141.923 56.7034 140.655 57.7296 140.135 58.2043C138.898 59.332 138.034 61.1945 139.986 61.8695C141.459 62.3801 143.508 62.0865 145.078 62.1727C145.406 62.1905 147.019 63.045 147.11 63.3712C147.247 63.8551 147.172 64.4562 147.18 64.9567C147.191 65.5635 147.51 65.8635 147.683 66.3975C147.991 67.2955 147.91 68.3309 148.04 69.2606C148.204 70.4681 148.325 71.6764 148.496 72.886C148.659 74.0543 148.75 75.2088 148.771 76.3874" stroke="black" stroke-linecap="round" stroke-linejoin="round"/>
<path d="M109.074 44.7114C109.742 45.9287 110.807 47.157 110.832 48.5933C110.84 49.0116 110.847 49.4306 110.854 49.8497C110.868 50.6335 110.838 51.3575 111.183 52.0813C111.32 52.3681 111.303 52.6554 111.537 52.8984C111.763 53.1337 112.035 53.3118 112.242 53.5724C112.318 53.6674 112.481 53.7074 112.525 53.8238C112.576 53.9614 112.567 54.1394 112.606 54.2858C112.661 54.4927 112.677 54.6981 112.924 54.6937" stroke="black" stroke-linecap="round" stroke-linejoin="round"/>
<path d="M116.702 48.1138C115.937 46.9281 114.971 46.1974 114.945 44.7061" stroke="black" stroke-linecap="round" stroke-linejoin="round"/>
<path d="M114.945 44.7059C114.72 44.1517 114.619 43.7381 114.609 43.1494" stroke="black" stroke-linecap="round" stroke-linejoin="round"/>
<path d="M137.275 23.9966C138.139 24.842 139.128 26.0537 139.185 27.3152C139.233 28.3563 139.839 29.3562 139.856 30.3599C139.886 32.0582 140.226 33.8682 140.255 35.5458C140.287 37.3755 140.846 39.4438 141.89 40.9188C142.285 41.466 142.523 41.6261 142.536 42.3493C142.552 43.2995 142.721 44.3898 142.516 45.3196C142.331 46.1597 141.992 46.7748 142.008 47.6643C142.013 47.9798 142.019 48.2946 142.024 48.6101" stroke="black" stroke-linecap="round" stroke-linejoin="round"/>
<path d="M0.606201 7.21484L41.8948 103.948L44.4756 109.994" stroke="black" stroke-opacity="0.5" stroke-linecap="round" stroke-linejoin="round"/>
<path d="M44.4756 109.994L412.345 103.573" stroke="black" stroke-opacity="0.5" stroke-linecap="round" stroke-linejoin="round"/>
</svg>
