<svg width="75" height="35" viewBox="0 0 75 35" fill="none" xmlns="http://www.w3.org/2000/svg">
<path d="M4.1817 4.93945C5.32376 12.3237 5.12334 20.1794 3.73175 27.4783C3.37507 29.3491 2.28973 30.8709 1.93202 32.7213C1.78219 33.4963 1.74866 33.8139 1 34.0001" stroke="black" stroke-width="2" stroke-linecap="round" stroke-linejoin="round"/>
<path d="M3.60327 7.24135C5.34547 5.60733 8.6029 4.33037 10.8666 5.8027C11.5871 6.27136 12.0915 7.10648 12.2164 7.94468C12.5583 10.2406 11.2507 11.2203 9.96667 12.9C8.76067 14.4777 7.58221 15.9882 5.75654 16.8963C5.08322 17.2312 4.54902 17.0513 5.59585 16.5766C6.82944 16.0171 10.5743 15.2824 11.8628 16.2249C14.1052 17.865 14.0161 20.5705 14.0161 23.0664C14.0161 25.9773 13.8044 27.2472 11.7021 29.3965C10.1182 31.0159 8.68104 32.0998 6.43144 32.4976C4.98202 32.7539 3.34199 32.5615 1.8678 32.5615" stroke="black" stroke-width="2" stroke-linecap="round" stroke-linejoin="round"/>
<path d="M25.8751 15.2979C25.8751 18.7562 25.8231 21.9624 25.1841 25.3524C25.0852 25.8771 24.1396 29.9305 24.1396 28.5334" stroke="black" stroke-width="2" stroke-linecap="round" stroke-linejoin="round"/>
<path d="M25.0074 15.8737C23.9158 15.4212 18.3629 12.8072 18.0815 15.7458C17.9626 16.9881 17.8454 18.652 18.1298 19.8539C18.499 21.4147 21.2311 22.1728 22.6291 22.2037C22.9425 22.2106 23.9209 21.9944 23.8504 22.5553C23.5743 24.7524 20.7263 27.4729 18.9653 28.6616C17.6184 29.5708 16.4303 31.4737 14.8838 31.9865" stroke="black" stroke-width="2" stroke-linecap="round" stroke-linejoin="round"/>
<path d="M31.0815 15.0099C34.1144 14.5272 35.3805 16.0191 36.2558 18.9422C36.7634 20.6374 37.69 24.7966 35.8702 26.0395C35.4066 26.3562 32.4465 27.8003 31.9493 26.9347C31.0707 25.4051 31.9018 24.4985 33.749 24.2812C38.3827 23.736 39.248 27.2821 38.8912 31.1867C38.6762 33.539 34.4084 33.4246 32.817 33.4246C31.485 33.4246 29.0577 34.0012 28.1891 32.8491" stroke="black" stroke-width="2" stroke-linecap="round" stroke-linejoin="round"/>
<path d="M45.2548 16.1606C45.8947 20.6982 44.2078 25.0932 42.6514 29.3163C42.2068 30.5224 41.5725 31.6248 41.2694 32.8809C41.0605 33.7469 40.9364 31.8815 40.9159 31.698" stroke="black" stroke-width="2" stroke-linecap="round" stroke-linejoin="round"/>
<path d="M45.2548 18.1748C49.4397 21.1485 49.0146 27.5032 49.0146 31.9858" stroke="black" stroke-width="2" stroke-linecap="round" stroke-linejoin="round"/>
<path d="M43.8083 25.3682C44.9654 25.3682 46.1225 25.3682 47.2792 25.3682" stroke="black" stroke-width="2" stroke-linecap="round" stroke-linejoin="round"/>
<path d="M55.0892 15.2979C56.2553 19.2134 55.8014 23.838 55.0892 27.7981C54.9364 28.6475 54.7921 31.4002 53.964 32.0181C53.4926 32.3698 53.9321 30.846 53.9321 30.2598" stroke="black" stroke-width="2" stroke-linecap="round" stroke-linejoin="round"/>
<path d="M55.3781 23.9291C56.4147 23.3399 59.3023 22.7977 59.4115 21.2756C59.4897 20.187 59.3486 19.0857 59.4439 17.9987C59.5077 17.2673 59.6353 15.5619 60.006 17.2953C60.9506 21.71 60.2954 26.8436 60.2954 31.41" stroke="black" stroke-width="2" stroke-linecap="round" stroke-linejoin="round"/>
<path d="M68.1049 14.4346C68.1049 16.8719 68.1692 19.3195 68.0892 21.7557C68.025 23.7046 66.8332 25.1051 66.6751 26.9188C66.5726 28.0891 66.0806 28.7743 66.0806 29.972" stroke="black" stroke-width="2" stroke-linecap="round" stroke-linejoin="round"/>
<path d="M68.105 25.3686C69.0352 24.6466 72.1758 23.0719 72.9581 25.0169C73.7876 27.0799 74.8526 30.5497 72.8777 32.2581C71.8414 33.1546 70.2368 33.9172 68.7961 33.6967C66.7066 33.3769 65.7386 29.3197 65.5018 27.6704" stroke="black" stroke-width="2" stroke-linecap="round" stroke-linejoin="round"/>
<path d="M9.71254 2.32812C9.00496 3.17276 7.5899 3.90522 6.45825 3.90522" stroke="black" stroke-width="2" stroke-linecap="round" stroke-linejoin="round"/>
<path d="M6.79199 3.9882C6.80576 3.18035 7.26749 2.06827 8.00656 1.62715C8.42774 1.37577 8.85067 1.34371 9.33238 1.33202C9.89753 1.31831 10.356 1.17398 10.8807 1" stroke="black" stroke-width="2" stroke-linecap="round" stroke-linejoin="round"/>
<path d="M45.236 18.9531C44.9043 18.6235 44.4815 18.2939 44.2757 17.86C44.1642 17.6257 44.2568 17.3563 44.1584 17.1383C43.9526 16.6837 43.3154 16.5323 43.3154 15.9922" stroke="black" stroke-width="2" stroke-linecap="round" stroke-linejoin="round"/>
<path d="M45.4279 18.9533C45.4377 18.3478 45.5429 17.8334 45.6948 17.2553C45.7833 16.9177 46.0039 16.761 46.0039 16.3957C46.0039 15.8846 46.1639 15.5789 46.3881 15.1328" stroke="black" stroke-width="2" stroke-linecap="round" stroke-linejoin="round"/>
<path d="M47.2523 25.5435C47.5085 25.5435 47.7642 25.5435 48.0203 25.5435" stroke="black" stroke-width="2" stroke-linecap="round" stroke-linejoin="round"/>
<path d="M67.1276 13.4136C66.9766 13.0634 66.8058 12.6771 66.6261 12.3417C66.2621 11.6614 65.242 11.2607 64.5779 10.9302C63.8387 10.5627 62.9175 10.3588 62.1136 10.1661C60.3274 9.73799 58.6306 9.21102 56.7792 9.21102C54.061 9.21102 51.3347 9.14428 48.6179 9.21102C47.605 9.23587 46.6187 9.6304 45.6197 9.76284C45.0014 9.84487 44.3759 9.87098 43.7529 9.8796C43.0638 9.88912 42.4394 10.1709 41.758 10.2404C40.0512 10.4145 38.4449 10.6437 36.7225 10.6437C35.087 10.6437 33.4763 10.8347 31.8363 10.8347C28.498 10.8347 25.1176 11.0161 21.8079 10.6225C19.622 10.3625 17.2136 9.46384 15.3748 8.25588C15.099 8.07469 14.8089 7.91464 14.5533 7.70402C14.2883 7.48563 14.2914 7.09767 14.0306 6.88686C13.7812 6.68534 13.5825 6.37755 13.4545 6.05908" stroke="black" stroke-linecap="round" stroke-linejoin="round"/>
</svg>
