<svg width="254" height="28" viewBox="0 0 254 28" fill="none" xmlns="http://www.w3.org/2000/svg">
<path d="M0.556343 23.7251L252.932 19.3199L252.873 15.9451L252.998 23.084M0.50801 20.9561L0.556343 23.7251L0.50801 20.9561ZM0.604676 26.4941L0.556343 23.7251L0.604676 26.4941Z" stroke="#565656" stroke-linecap="round" stroke-linejoin="round"/>
<path d="M87.5389 8.55755L86.3063 8.57907L86.3859 13.1384L85.0491 13.1618L84.8719 3.01123L86.2087 2.9879L86.2868 7.46362L87.3312 7.44539L90.7971 2.90781L92.461 2.87876L88.6758 7.86823L92.9234 13.0243L91.2872 13.0529L87.5389 8.55755ZM98.5976 12.9253C98.5208 12.7779 98.4556 12.514 98.4026 12.1337C97.8146 12.7669 97.1057 13.0908 96.2744 13.1053C95.5323 13.1183 94.9184 12.9197 94.4327 12.5098C93.9519 12.0952 93.7059 11.5648 93.6946 10.9188C93.6809 10.1334 93.9676 9.51929 94.5539 9.07668C95.1451 8.62934 95.9811 8.39624 97.0626 8.37737L98.316 8.35549L98.3056 7.76291C98.2978 7.31208 98.1568 6.95656 97.8834 6.69634C97.6092 6.43147 97.2097 6.30362 96.6857 6.31277C96.2259 6.3208 95.8429 6.44371 95.5362 6.68152C95.2287 6.91934 95.0782 7.20324 95.0839 7.53322L93.7892 7.55582C93.7827 7.17936 93.9082 6.81453 94.1674 6.46133C94.43 6.10341 94.7873 5.81824 95.2385 5.6058C95.6941 5.39328 96.1963 5.28224 96.7439 5.27268C97.6122 5.25752 98.2954 5.4641 98.795 5.8924C99.2952 6.31604 99.5608 6.90881 99.5927 7.67071L99.6533 11.1425C99.6654 11.835 99.7626 12.3842 99.9466 12.7902L99.9485 12.9017L98.5976 12.9253ZM96.443 11.9796C96.8473 11.9725 97.2283 11.8613 97.5861 11.6459C97.9446 11.4304 98.2022 11.1539 98.3589 10.8164L98.3319 9.26876L97.3224 9.28638C95.744 9.31393 94.9636 9.79012 94.9797 10.715C94.9868 11.1194 95.1263 11.4331 95.3998 11.6561C95.6732 11.8791 96.021 11.9869 96.443 11.9796ZM102.977 5.30335L103.091 11.7939L105.848 11.7457L105.735 5.25521L107.022 5.23274L107.136 11.7232L109.886 11.6752L109.773 5.18473L111.068 5.16213L111.199 12.7053L101.814 12.8691L101.683 5.32594L102.977 5.30335ZM116.36 12.7547C115.339 12.7725 114.503 12.4524 113.85 11.7943C113.199 11.1316 112.863 10.2378 112.843 9.11312L112.839 8.87606C112.826 8.12779 112.955 7.45838 113.228 6.86783C113.506 6.27255 113.897 5.80546 114.402 5.46656C114.911 5.12293 115.465 4.9459 116.064 4.93544C117.043 4.91836 117.81 5.22808 118.365 5.86462C118.919 6.50117 119.206 7.42133 119.227 8.62508L119.237 9.16191L114.133 9.25099C114.165 9.99425 114.391 10.5924 114.812 11.0453C115.238 11.4935 115.772 11.712 116.412 11.7008C116.867 11.6929 117.25 11.5932 117.563 11.4018C117.875 11.2104 118.147 10.9592 118.378 10.6483L119.176 11.2481C118.561 12.2305 117.623 12.7327 116.36 12.7547ZM116.083 5.99512C115.563 6.00419 115.13 6.20236 114.784 6.58963C114.437 6.97225 114.228 7.5059 114.157 8.19056L117.93 8.12469L117.929 8.02709C117.88 7.37242 117.695 6.86891 117.373 6.51654C117.051 6.15952 116.621 5.98572 116.083 5.99512ZM125.101 10.7541L127.561 4.87423L129.169 4.84616L129.301 12.3894L128.013 12.4118L127.917 6.92525L125.576 12.4544L124.685 12.4699L122.102 6.90821L122.2 12.5133L120.911 12.5358L120.78 4.9926L122.451 4.96343L125.101 10.7541ZM136.118 4.72488L137.405 4.7024L137.537 12.2456L136.249 12.2681L136.153 6.76754L132.775 12.3287L131.487 12.3512L131.355 4.80801L132.644 4.78552L132.74 10.293L136.118 4.72488ZM145.904 8.41048C145.924 9.5585 145.678 10.4879 145.166 11.1989C144.653 11.9099 143.949 12.2731 143.054 12.2888C142.139 12.3047 141.415 12.0268 140.88 11.455L140.943 15.0872L139.656 15.1097L139.473 4.6663L140.65 4.64577L140.727 5.48126C141.24 4.82143 141.963 4.48337 142.896 4.46709C143.801 4.45129 144.522 4.78042 145.058 5.45448C145.599 6.12845 145.881 7.07428 145.902 8.29197L145.904 8.41048ZM144.613 8.28657C144.599 7.43605 144.406 6.76761 144.035 6.28128C143.664 5.79495 143.164 5.55728 142.532 5.5683C141.753 5.58191 141.174 5.93838 140.796 6.63769L140.859 10.242C141.256 10.9231 141.852 11.2567 142.645 11.2429C143.263 11.2321 143.748 10.9796 144.101 10.4852C144.46 9.98617 144.63 9.25331 144.613 8.28657Z" fill="black"/>
</svg>
