<svg width="361" height="29" viewBox="0 0 361 29" fill="none" xmlns="http://www.w3.org/2000/svg">
<path d="M1.08001 24.3795L359.681 18.1201L359.613 14.1937L359.744 21.6895M1.03017 21.524L1.08001 24.3795L1.03017 21.524ZM1.12985 27.235L1.08001 24.3795L1.12985 27.235Z" stroke="#565656" stroke-linecap="round" stroke-linejoin="round"/>
<path d="M112.033 4.43397L115.492 12.6583L118.661 4.31828L120.395 4.28801L120.572 14.4386L119.236 14.4619L119.167 10.5091L119.218 6.24028L116.033 14.5178L115.009 14.5357L111.546 6.39513L111.752 10.6385L111.821 14.5914L110.484 14.6147L110.307 4.46411L112.033 4.43397ZM125.859 14.4858C124.838 14.5036 124.001 14.1835 123.349 13.5254C122.696 12.8627 122.361 11.9689 122.341 10.8442L122.337 10.6071C122.324 9.85891 122.454 9.18945 122.727 8.59891C123.004 8.00366 123.395 7.53652 123.9 7.19764C124.409 6.85405 124.963 6.677 125.562 6.66655C126.542 6.64945 127.309 6.95919 127.863 7.59572C128.417 8.2323 128.705 9.15239 128.726 10.3561L128.735 10.893L123.632 10.9821C123.664 11.7253 123.89 12.3234 124.311 12.7764C124.737 13.2246 125.27 13.4431 125.911 13.4319C126.365 13.4239 126.749 13.3243 127.061 13.1329C127.373 12.9415 127.646 12.6903 127.877 12.3794L128.674 12.9792C128.06 13.9616 127.122 14.4637 125.859 14.4858ZM125.581 7.72624C125.061 7.73531 124.628 7.93346 124.282 8.32069C123.936 8.70334 123.727 9.237 123.655 9.92165L127.428 9.85578L127.427 9.75819C127.378 9.1035 127.193 8.6 126.871 8.24764C126.549 7.89064 126.119 7.71684 125.581 7.72624ZM136.59 10.47C136.61 11.618 136.365 12.5474 135.852 13.2583C135.34 13.9693 134.636 14.3326 133.74 14.3482C132.826 14.3642 132.101 14.0863 131.566 13.5145L131.63 17.1466L130.342 17.1691L130.16 6.72576L131.336 6.70522L131.414 7.54073C131.927 6.88086 132.65 6.54283 133.583 6.52655C134.488 6.51074 135.208 6.83987 135.745 7.5139C136.286 8.18792 136.567 9.1337 136.588 10.3514L136.59 10.47ZM135.3 10.346C135.285 9.49549 135.092 8.82703 134.722 8.3407C134.351 7.85437 133.85 7.61674 133.219 7.62776C132.439 7.64138 131.86 7.99781 131.482 8.69716L131.545 12.3014C131.943 12.9825 132.538 13.3162 133.332 13.3023C133.95 13.2915 134.434 13.039 134.788 12.5447C135.147 12.0456 135.317 11.3128 135.3 10.346ZM143.04 6.50094L144.328 6.47845L144.46 14.0216L143.171 14.0441L143.075 8.54358L139.697 14.1048L138.409 14.1273L138.277 6.58407L139.566 6.56158L139.662 12.0691L143.04 6.50094ZM152.682 13.8781L151.394 13.9006L151.337 10.6798L147.878 10.7402L147.934 13.961L146.638 13.9836L146.507 6.44042L147.802 6.41781L147.859 9.68748L151.319 9.62708L151.262 6.35742L152.55 6.33493L152.682 13.8781ZM154.348 10.0065C154.335 9.26759 154.467 8.60045 154.745 8.00518C155.027 7.40977 155.423 6.94725 155.933 6.61759C156.447 6.28784 157.036 6.11717 157.699 6.10559C158.725 6.08768 159.56 6.42874 160.204 7.12881C160.852 7.82881 161.187 8.76909 161.207 9.94957L161.209 10.0402C161.222 10.7745 161.091 11.437 160.819 12.0275C160.55 12.6134 160.157 13.0735 159.638 13.408C159.123 13.7424 158.527 13.9156 157.85 13.9274C156.829 13.9452 155.995 13.6041 155.346 12.9041C154.702 12.2041 154.37 11.2684 154.35 10.0972L154.348 10.0065ZM155.646 10.1373C155.661 10.9739 155.865 11.6421 156.259 12.142C156.657 12.6418 157.182 12.886 157.832 12.8747C158.486 12.8633 159.002 12.5985 159.378 12.0806C159.754 11.558 159.934 10.8342 159.918 9.90931C159.904 9.08206 159.694 8.41624 159.291 7.91183C158.892 7.40279 158.368 7.15393 157.718 7.16528C157.082 7.17638 156.574 7.43862 156.193 7.95199C155.812 8.46537 155.63 9.19386 155.646 10.1373ZM165.894 12.734C166.353 12.7259 166.752 12.5795 167.091 12.2947C167.43 12.0098 167.614 11.6579 167.644 11.2389L168.862 11.2177C168.846 11.6503 168.705 12.0643 168.438 12.4594C168.171 12.8546 167.81 13.1724 167.354 13.4128C166.904 13.6532 166.423 13.7777 165.913 13.7866C164.887 13.8045 164.064 13.4772 163.444 12.8046C162.829 12.1273 162.511 11.1937 162.49 10.0039L162.486 9.78779C162.473 9.05348 162.596 8.39815 162.855 7.82177C163.115 7.24539 163.492 6.79484 163.988 6.46999C164.488 6.14512 165.082 5.97673 165.769 5.96473C166.614 5.94999 167.319 6.19104 167.885 6.68789C168.455 7.18473 168.766 7.83714 168.817 8.64518L167.599 8.66644C167.553 8.17908 167.36 7.78263 167.021 7.47706C166.686 7.16678 166.274 7.01593 165.787 7.02443C165.133 7.03585 164.629 7.28173 164.275 7.76215C163.926 8.23776 163.759 8.92178 163.774 9.81414L163.779 10.0581C163.794 10.9272 163.985 11.5934 164.35 12.0566C164.715 12.5197 165.231 12.7455 165.894 12.734ZM169.943 9.73432C169.93 8.99537 170.063 8.32823 170.34 7.73297C170.622 7.13755 171.019 6.67504 171.528 6.34538C172.042 6.01563 172.631 5.84496 173.295 5.83337C174.321 5.81546 175.155 6.15652 175.799 6.8566C176.448 7.5566 176.782 8.49687 176.803 9.67735L176.804 9.76801C176.817 10.5023 176.687 11.1648 176.414 11.7553C176.145 12.3411 175.752 12.8013 175.233 13.1358C174.719 13.4702 174.123 13.6433 173.445 13.6552C172.424 13.673 171.59 13.3319 170.942 12.6319C170.297 11.9319 169.965 10.9962 169.945 9.82498L169.943 9.73432ZM171.241 9.86512C171.256 10.7017 171.46 11.3699 171.854 11.8698C172.253 12.3696 172.777 12.6138 173.427 12.6025C174.081 12.591 174.597 12.3263 174.973 11.8084C175.35 11.2857 175.529 10.562 175.513 9.63709C175.499 8.80984 175.29 8.14402 174.886 7.63962C174.488 7.13057 173.963 6.88172 173.313 6.89307C172.677 6.90417 172.169 7.1664 171.788 7.67978C171.407 8.19316 171.225 8.92165 171.241 9.86512ZM178.602 13.4257L178.47 5.8825L181.408 5.83122C182.411 5.81371 183.182 5.97692 183.722 6.32083C184.266 6.66002 184.545 7.16889 184.557 7.84744C184.563 8.19603 184.464 8.5139 184.26 8.80103C184.056 9.08351 183.751 9.30271 183.345 9.45854C183.801 9.55754 184.169 9.76035 184.449 10.067C184.733 10.3735 184.878 10.7429 184.886 11.1751C184.898 11.8676 184.652 12.4019 184.148 12.778C183.649 13.1539 182.935 13.3501 182.007 13.3663L178.602 13.4257ZM179.832 10.0917L179.872 12.3644L182.002 12.3272C182.54 12.3179 182.941 12.2109 183.202 12.0065C183.467 11.8019 183.597 11.5184 183.59 11.1559C183.577 10.403 183.018 10.0361 181.914 10.0554L179.832 10.0917ZM179.814 9.05993L181.478 9.03089C182.685 9.00982 183.282 8.64606 183.27 7.9396C183.257 7.23321 182.68 6.87831 181.538 6.87496L179.777 6.90571L179.814 9.05993ZM191.28 13.2044C191.203 13.057 191.138 12.7931 191.085 12.4128C190.497 13.046 189.788 13.3699 188.957 13.3844C188.214 13.3974 187.6 13.1988 187.115 12.7889C186.634 12.3743 186.388 11.8439 186.377 11.1979C186.363 10.4125 186.65 9.7984 187.236 9.35578C187.827 8.90842 188.664 8.67538 189.745 8.65651L190.998 8.63463L190.988 8.04204C190.98 7.59122 190.839 7.2357 190.565 6.97547C190.291 6.71061 189.893 6.58274 189.368 6.5919C188.908 6.59993 188.525 6.7228 188.218 6.9606C187.911 7.19846 187.761 7.4823 187.767 7.81233L186.471 7.83494C186.465 7.45844 186.591 7.09361 186.849 6.74041C187.112 6.38256 187.469 6.09732 187.921 5.88493C188.377 5.67237 188.878 5.56135 189.426 5.5518C190.294 5.53664 190.978 5.74322 191.478 6.17146C191.977 6.59513 192.243 7.18791 192.275 7.9498L192.335 11.4216C192.347 12.1141 192.445 12.6633 192.629 13.0693L192.631 13.1808L191.28 13.2044ZM189.125 12.2587C189.529 12.2516 189.91 12.1404 190.269 11.9249C190.627 11.7095 190.884 11.433 191.041 11.0955L191.014 9.54783L190.005 9.56545C188.427 9.59299 187.646 10.0692 187.662 10.9941C187.669 11.3985 187.809 11.7122 188.082 11.9352C188.355 12.1582 188.703 12.2661 189.125 12.2587ZM200.011 5.5065L200.143 13.0497L198.848 13.0723L198.797 10.1373L196.854 10.1712L195.13 13.1372L193.738 13.1615L195.577 9.99819C195.091 9.83 194.715 9.56464 194.448 9.20203C194.186 8.83463 194.051 8.40466 194.043 7.91194C194.031 7.22411 194.279 6.66657 194.787 6.23925C195.295 5.80734 195.98 5.5815 196.844 5.56179L200.011 5.5065ZM195.338 7.90332C195.345 8.27047 195.475 8.56576 195.73 8.78912C195.984 9.00783 196.318 9.11591 196.732 9.11333L198.778 9.0776L198.735 6.5748L196.882 6.60713C196.404 6.61548 196.026 6.74069 195.747 6.98265C195.468 7.21996 195.332 7.52682 195.338 7.90332ZM207.022 5.38413L207.135 11.8746L209.892 11.8265L209.779 5.336L211.067 5.31352L211.18 11.804L213.93 11.756L213.817 5.26552L215.112 5.24291L215.244 12.7861L205.859 12.9499L205.727 5.40672L207.022 5.38413ZM220.405 12.8355C219.384 12.8533 218.547 12.5332 217.895 11.8751C217.243 11.2124 216.907 10.3186 216.887 9.19391L216.883 8.95682C216.87 8.2086 217 7.53914 217.273 6.9486C217.551 6.35334 217.942 5.8862 218.447 5.54733C218.955 5.20375 219.51 5.02668 220.108 5.01624C221.088 4.99914 221.855 5.30889 222.409 5.9454C222.963 6.58199 223.251 7.50209 223.272 8.70584L223.281 9.24268L218.178 9.33176C218.21 10.075 218.436 10.6731 218.857 11.1261C219.283 11.5743 219.816 11.7927 220.457 11.7816C220.911 11.7736 221.295 11.674 221.607 11.4825C221.92 11.2911 222.192 11.04 222.423 10.7291L223.22 11.3289C222.606 12.3113 221.668 12.8134 220.405 12.8355ZM220.127 6.07593C219.607 6.085 219.174 6.28315 218.828 6.67037C218.482 7.05304 218.273 7.58669 218.202 8.27133L221.975 8.20547L221.973 8.10788C221.924 7.45319 221.739 6.94969 221.417 6.59733C221.096 6.24032 220.666 6.06652 220.127 6.07593ZM231.137 8.81963C231.157 9.96763 230.911 10.897 230.398 11.608C229.886 12.319 229.182 12.6823 228.286 12.6979C227.372 12.7139 226.647 12.4359 226.113 11.8641L226.176 15.4963L224.888 15.5188L224.706 5.07545L225.882 5.05492L225.96 5.89042C226.473 5.23056 227.196 4.89252 228.129 4.87624C229.034 4.86044 229.755 5.18955 230.291 5.86359C230.832 6.53762 231.114 7.48338 231.135 8.70113L231.137 8.81963ZM229.846 8.6957C229.831 7.84518 229.638 7.17672 229.268 6.69039C228.897 6.20406 228.396 5.96643 227.765 5.97745C226.986 5.99106 226.406 6.34751 226.028 7.04685L226.091 10.6511C226.489 11.3322 227.085 11.6659 227.878 11.652C228.496 11.6412 228.981 11.3887 229.334 10.8944C229.693 10.3953 229.863 9.66244 229.846 8.6957ZM235.85 11.5129C236.309 11.5049 236.708 11.3584 237.047 11.0736C237.386 10.7887 237.57 10.4368 237.6 10.0178L238.818 9.99658C238.802 10.4292 238.661 10.8432 238.394 11.2383C238.127 11.6335 237.765 11.9513 237.31 12.1917C236.86 12.4321 236.379 12.5566 235.868 12.5656C234.843 12.5835 234.02 12.2561 233.4 11.5836C232.784 10.9062 232.466 9.97264 232.445 8.78288L232.441 8.56672C232.428 7.83241 232.552 7.17707 232.811 6.60069C233.071 6.0243 233.448 5.57376 233.944 5.2489C234.444 4.92403 235.038 4.75565 235.725 4.74365C236.57 4.7289 237.275 4.96996 237.84 5.46681C238.411 5.96365 238.722 6.61605 238.773 7.4241L237.555 7.44536C237.509 6.958 237.316 6.56154 236.977 6.25597C236.641 5.9457 236.23 5.79484 235.743 5.80334C235.089 5.81477 234.585 6.06065 234.231 6.54106C233.882 7.01668 233.715 7.7007 233.73 8.59306L233.735 8.83706C233.75 9.70614 233.94 10.3723 234.306 10.8355C234.671 11.2986 235.186 11.5245 235.85 11.5129ZM245.792 5.75341L243.265 5.79752L243.378 12.295L242.09 12.3175L241.976 5.82001L239.498 5.86328L239.479 4.81758L245.774 4.70771L245.792 5.75341ZM248.478 7.26169L250.435 7.22754C251.289 7.22192 251.968 7.43322 252.472 7.86144C252.977 8.28967 253.235 8.87786 253.248 9.62615C253.262 10.3791 253.017 10.9877 252.514 11.4521C252.012 11.9165 251.329 12.1562 250.465 12.1713L247.276 12.227L247.145 4.68378L248.433 4.66129L248.478 7.26169ZM248.497 8.31438L248.546 11.1518L250.461 11.1184C250.944 11.1099 251.315 10.9803 251.575 10.7293C251.836 10.4737 251.961 10.1298 251.954 9.6976C251.947 9.27926 251.811 8.93993 251.547 8.67954C251.287 8.41443 250.924 8.28129 250.46 8.28011L248.497 8.31438Z" fill="black"/>
</svg>
