<svg width="440" height="30" viewBox="0 0 440 30" fill="none" xmlns="http://www.w3.org/2000/svg">
<path d="M1.51855 24.5302L439.255 16.8895L439.224 15.1598L439.281 18.3722M1.45337 20.7959L1.51855 24.5302L1.45337 20.7959ZM1.59667 29.0056L1.51855 24.5302L1.59667 29.0056Z" stroke="#565656" stroke-linecap="round" stroke-linejoin="round"/>
<path d="M154.942 5.4636L155.1 14.5199L158.588 14.4591L158.43 5.40273L159.759 5.37952L159.917 14.4359L163.385 14.3753L163.227 5.31899L164.564 5.29566L164.741 15.4464L153.775 15.6378L153.598 5.48706L154.942 5.4636ZM170.076 15.4925C169.055 15.5103 168.218 15.1907 167.566 14.5323C166.914 13.8696 166.578 12.9757 166.558 11.8513L166.554 11.6143C166.541 10.8661 166.671 10.1962 166.944 9.60585C167.221 9.01044 167.613 8.54373 168.117 8.20429C168.626 7.86121 169.181 7.68371 169.779 7.67327C170.759 7.65618 171.526 7.96628 172.08 8.60286C172.634 9.23946 172.922 10.1592 172.943 11.3628L172.952 11.8996L167.849 11.9887C167.88 12.7323 168.107 13.3303 168.528 13.7836C168.954 14.2317 169.487 14.4502 170.127 14.439C170.582 14.4311 170.966 14.3308 171.278 14.1397C171.591 13.9486 171.862 13.6975 172.094 13.3864L172.891 13.9859C172.277 14.9685 171.339 15.4705 170.076 15.4925ZM169.798 8.73339C169.278 8.74246 168.845 8.94069 168.499 9.32734C168.153 9.71043 167.944 10.2439 167.873 10.9286L171.646 10.8627L171.644 10.7649C171.595 10.1102 171.41 9.60716 171.088 9.2543C170.767 8.89786 170.336 8.72399 169.798 8.73339ZM180.808 11.4769C180.828 12.6248 180.582 13.5546 180.069 14.2655C179.557 14.9764 178.853 15.3393 177.957 15.3549C177.043 15.3709 176.318 15.0929 175.783 14.5217L175.847 18.1532L174.559 18.1757L174.377 7.73298L175.553 7.71245L175.631 8.54731C176.144 7.88781 176.867 7.54955 177.799 7.53328C178.705 7.51747 179.426 7.84695 179.962 8.52099C180.503 9.19494 180.784 10.1405 180.806 11.3584L180.808 11.4769ZM179.517 11.353C179.502 10.5028 179.309 9.83418 178.939 9.34792C178.568 8.86166 178.067 8.62332 177.436 8.63435C176.656 8.64795 176.077 9.00511 175.699 9.70439L175.762 13.3081C176.16 13.9895 176.756 14.3233 177.549 14.3095C178.166 14.2987 178.652 14.046 179.005 13.5514C179.363 13.0524 179.534 12.3196 179.517 11.353ZM185.521 14.1703C185.98 14.1623 186.379 14.0154 186.718 13.731C187.057 13.4458 187.241 13.0941 187.271 12.6752L188.489 12.6539C188.473 13.0862 188.332 13.5007 188.065 13.8953C187.798 14.2905 187.436 14.6089 186.981 14.8489C186.53 15.0896 186.05 15.2137 185.539 15.2226C184.513 15.2405 183.69 14.9135 183.07 14.2409C182.455 13.5633 182.137 12.6298 182.116 11.4398L182.112 11.2242C182.099 10.4896 182.223 9.83403 182.482 9.25822C182.742 8.68169 183.119 8.23094 183.614 7.90594C184.115 7.58157 184.708 7.41268 185.396 7.40068C186.24 7.38594 186.946 7.62714 187.511 8.12428C188.082 8.62061 188.393 9.27359 188.444 10.0811L187.226 10.1023C187.18 9.61539 186.987 9.21886 186.648 8.91343C186.312 8.60294 185.901 8.4523 185.414 8.4608C184.76 8.47223 184.256 8.71811 183.902 9.19845C183.553 9.67371 183.386 10.3579 183.401 11.2502L183.405 11.4944C183.421 12.3632 183.611 13.0297 183.977 13.4925C184.342 13.956 184.857 14.1819 185.521 14.1703ZM195.463 8.41037L192.936 8.45449L193.049 14.9523L191.761 14.9748L191.647 8.47697L189.168 8.52024L189.15 7.47511L195.445 7.36524L195.463 8.41037ZM198.149 9.91879L200.105 9.88465C200.96 9.87902 201.639 10.0907 202.143 10.5189C202.648 10.9471 202.906 11.5353 202.919 12.2835C202.933 13.0366 202.688 13.645 202.185 14.1094C201.683 14.5738 201 14.8135 200.136 14.8286L196.947 14.8842L196.816 7.34131L198.104 7.31883L198.149 9.91879ZM198.168 10.9718L198.217 13.8087L200.132 13.7753C200.615 13.7669 200.986 13.6376 201.246 13.3867C201.506 13.1308 201.632 12.7872 201.625 12.3546C201.618 11.9363 201.482 11.5973 201.218 11.337C200.958 11.0716 200.595 10.9387 200.131 10.9375L198.168 10.9718ZM212.759 14.6082C212.682 14.461 212.617 14.1972 212.564 13.8168C211.976 14.4498 211.267 14.7735 210.435 14.788C209.693 14.801 209.079 14.6025 208.594 14.1925C208.113 13.7781 207.867 13.2476 207.856 12.6015C207.842 11.8162 208.129 11.2021 208.715 10.7598C209.306 10.3125 210.142 10.0794 211.224 10.0605L212.477 10.0386L212.467 9.44608C212.459 8.99491 212.318 8.63961 212.044 8.37945C211.77 8.1143 211.371 7.98631 210.847 7.99546C210.387 8.00348 210.004 8.12656 209.696 8.36473C209.39 8.60217 209.239 8.88615 209.245 9.21596L207.95 9.23856C207.944 8.86235 208.069 8.49739 208.328 8.1444C208.591 7.78632 208.948 7.50087 209.399 7.28876C209.855 7.07658 210.357 6.96498 210.905 6.95542C211.772 6.94028 212.456 7.14685 212.956 7.57516C213.455 7.99919 213.722 8.59153 213.754 9.35364L213.814 12.8253C213.826 13.5177 213.924 14.0673 214.108 14.4733L214.109 14.5847L212.759 14.6082ZM210.604 13.6625C211.008 13.6555 211.389 13.5446 211.747 13.3291C212.106 13.1136 212.363 12.837 212.52 12.4994L212.493 10.9517L211.483 10.9693C209.905 10.9968 209.125 11.4732 209.141 12.3977C209.148 12.8024 209.287 13.1164 209.561 13.3394C209.834 13.5624 210.182 13.6699 210.604 13.6625ZM221.908 6.90333L222.039 14.4462L220.744 14.4688L220.631 7.99248L218.069 8.0372L217.965 10.8633C217.905 12.1612 217.703 13.0923 217.359 13.656C217.021 14.2204 216.471 14.5199 215.711 14.5567L215.195 14.5657L215.175 13.4292L215.544 13.3949C215.961 13.3412 216.256 13.094 216.429 12.6546C216.603 12.2146 216.705 11.4037 216.735 10.2221L216.818 6.99217L221.908 6.90333ZM225.427 9.44265L227.383 9.40851C228.238 9.40288 228.917 9.61454 229.421 10.0428C229.925 10.471 230.184 11.0592 230.197 11.8073C230.21 12.5605 229.966 13.1689 229.463 13.6333C228.96 14.0976 228.277 14.3373 227.414 14.3524L224.225 14.4081L224.094 6.86517L225.382 6.84269L225.427 9.44265ZM225.446 10.4956L225.495 13.3326L227.409 13.2992C227.892 13.2908 228.263 13.1615 228.524 12.9105C228.784 12.6546 228.91 12.3111 228.903 11.8785C228.895 11.4602 228.76 11.1212 228.495 10.8609C228.235 10.5955 227.873 10.4625 227.409 10.4614L225.446 10.4956ZM238.01 14.1675L236.722 14.1899L236.609 7.71359L233.142 7.7741L233.255 14.2505L231.96 14.2731L231.829 6.73015L237.879 6.62455L238.01 14.1675ZM244.729 14.0502C244.652 13.903 244.587 13.6392 244.534 13.2588C243.946 13.8917 243.237 14.2155 242.406 14.23C241.663 14.243 241.049 14.0444 240.564 13.6344C240.083 13.2201 239.837 12.6895 239.826 12.0435C239.812 11.2582 240.098 10.6441 240.685 10.2018C241.277 9.75443 242.113 9.52132 243.194 9.50244L244.447 9.48056L244.437 8.88804C244.429 8.43686 244.288 8.08156 244.014 7.82141C243.741 7.55626 243.341 7.42826 242.816 7.43742C242.357 7.44544 241.974 7.56853 241.667 7.80668C241.36 8.04412 241.21 8.3281 241.215 8.65792L239.921 8.68052C239.914 8.3043 240.04 7.93934 240.298 7.58635C240.561 7.22827 240.919 6.94282 241.37 6.73071C241.825 6.51853 242.328 6.40693 242.875 6.39737C243.743 6.38223 244.427 6.58881 244.926 7.01712C245.426 7.44115 245.691 8.0335 245.723 8.7956L245.784 12.2672C245.796 12.9597 245.894 13.5093 246.077 13.9152L246.079 14.0266L244.729 14.0502ZM242.574 13.1045C242.978 13.0974 243.359 12.9865 243.717 12.771C244.076 12.5555 244.334 12.279 244.49 11.9413L244.463 10.3936L243.454 10.4112C241.875 10.4388 241.094 10.9152 241.11 11.8396C241.117 12.2444 241.258 12.5583 241.531 12.7813C241.804 13.0044 242.152 13.1119 242.574 13.1045ZM250.124 10.7411L249.184 10.7575L249.24 13.9714L247.946 13.994L247.814 6.45113L249.109 6.42853L249.164 9.62103L250.007 9.60632L252.485 6.3696L254.045 6.34237L251.128 10.0195L254.427 13.8809L252.791 13.9095L250.124 10.7411ZM260.185 13.7804C260.108 13.6332 260.043 13.3694 259.99 12.989C259.402 13.622 258.693 13.9457 257.862 13.9602C257.119 13.9732 256.505 13.7746 256.02 13.3647C255.539 12.9503 255.293 12.4197 255.282 11.7737C255.268 10.9884 255.554 10.3743 256.141 9.932C256.732 9.48465 257.569 9.25153 258.65 9.23265L259.903 9.21079L259.893 8.61826C259.885 8.16709 259.744 7.81177 259.47 7.55162C259.196 7.28648 258.797 7.15847 258.273 7.16763C257.813 7.17566 257.43 7.29874 257.123 7.53689C256.816 7.77433 256.666 8.05831 256.672 8.38813L255.376 8.41074C255.37 8.03452 255.496 7.66955 255.754 7.31656C256.017 6.9585 256.374 6.67305 256.825 6.46094C257.282 6.24874 257.783 6.13715 258.331 6.1276C259.199 6.11244 259.883 6.31902 260.383 6.74733C260.882 7.17136 261.148 7.76371 261.18 8.52581L261.24 11.9974C261.252 12.6899 261.35 13.2395 261.533 13.6455L261.535 13.7568L260.185 13.7804ZM258.031 12.8347C258.434 12.8276 258.815 12.7167 259.174 12.5012C259.532 12.2858 259.789 12.0092 259.946 11.6715L259.919 10.1238L258.909 10.1415C257.332 10.169 256.55 10.6454 256.567 11.5699C256.574 11.9746 256.714 12.2885 256.987 12.5116C257.26 12.7346 257.608 12.8421 258.031 12.8347Z" fill="black"/>
</svg>
