<svg width="200" height="409" viewBox="0 0 200 409" fill="none" xmlns="http://www.w3.org/2000/svg">
<path d="M199.354 81.6612C179 54.8992 143.986 41.0731 115.125 25.7212C102.199 18.8457 84.64 11.5388 74.2088 1.10767" stroke="#37C007" stroke-linecap="round"/>
<path d="M179.217 166.53C155.595 154.481 132.758 139.443 106.974 132.486C80.6151 125.375 55.6927 119.147 31.0558 107.553" stroke="#37C007" stroke-linecap="round"/>
<path d="M190.724 241.33C156.913 243.035 124.31 254.354 91.3103 261.149C61.2908 267.329 31.489 271.537 0.847427 271.537" stroke="#37C007" stroke-linecap="round"/>
<path d="M189.285 298.868C184.647 305.932 180.388 315.521 173.782 321.084C158.437 334.006 140.282 345.381 123.436 356.087C88.4225 378.337 51.0504 393.859 12.3551 408.191" stroke="#37C007" stroke-linecap="round"/>
</svg>
