<svg width="200" height="409" viewBox="0 0 200 409" fill="none" xmlns="http://www.w3.org/2000/svg">
<path d="M0.847656 81.6612C21.2018 54.8992 56.2157 41.0731 85.0772 25.7212C98.0033 18.8457 115.562 11.5388 125.993 1.10767" stroke="#37C007" stroke-linecap="round"/>
<path d="M20.9863 166.53C44.6078 154.481 67.4454 139.443 93.2288 132.486C119.588 125.375 144.51 119.147 169.147 107.553" stroke="#37C007" stroke-linecap="round"/>
<path d="M9.47852 241.33C43.289 243.035 75.8921 254.354 108.892 261.149C138.911 267.329 168.713 271.537 199.355 271.537" stroke="#37C007" stroke-linecap="round"/>
<path d="M10.917 298.868C15.5548 305.932 19.8138 315.521 26.4204 321.084C41.7649 334.006 59.9205 345.381 76.7663 356.087C111.78 378.337 149.152 393.859 187.847 408.191" stroke="#37C007" stroke-linecap="round"/>
</svg>
